<?xml version="1.0" encoding="UTF-8"?>
<svg version="1.1" xmlns="http://www.w3.org/2000/svg" width="1024" height="1024">
<path d="M0 0 C337.92 0 675.84 0 1024 0 C1024 337.92 1024 675.84 1024 1024 C686.08 1024 348.16 1024 0 1024 C0 686.08 0 348.16 0 0 Z " fill="none" transform="translate(0,0)"/>
<path d="M0 0 C0.81291504 0.39445312 1.62583008 0.78890625 2.46337891 1.1953125 C22.34545756 10.85720516 40.81027455 23.12274719 58 37 C58.87269531 37.68191406 59.74539063 38.36382812 60.64453125 39.06640625 C65.73879732 43.06513123 70.60562801 47.25670799 75.3828125 51.62890625 C77.51464766 53.56028527 79.66653096 55.45902118 81.8359375 57.34765625 C94.00456041 67.97636112 105.37853805 79.26812391 116.30957031 91.16113281 C117.73842946 92.71546081 119.1767644 94.26106991 120.6171875 95.8046875 C125.22877532 100.81014759 129.47565324 106.04357941 133.640625 111.42016602 C136.08135528 114.56983431 138.54956469 117.68625162 141.09765625 120.75 C161.58109863 145.38909406 178.26563816 172.78839003 193.65234375 200.82421875 C194.49712452 202.36212823 195.34217 203.89989234 196.1875 205.4375 C196.58864014 206.16815674 196.98978027 206.89881348 197.40307617 207.65161133 C200.45024994 213.14571094 203.73627668 218.44890008 207.22143555 223.67553711 C208.84720533 226.12370685 210.06390073 228.19170218 211 231 C211.66 231 212.32 231 213 231 C213.8290075 227.60037262 214.29988965 224.49871254 214 221 C212.47104594 218.59735791 210.73283033 216.79551093 208.7265625 214.78125 C204.93706653 210.87172475 204.82782143 206.45030008 204.5625 201.25 C204.70003335 192.74409139 208.02832609 186.84019312 214 181 C202.04354097 134.09210387 177.35678555 75.7286141 134.05078125 49.796875 C132.11169246 48.65477405 130.15212992 47.54624333 128.16796875 46.484375 C126 45 126 45 125 41.5 C125 38 125 38 126.24609375 36.28515625 C129.05406529 34.22764481 131.15649238 34.79969302 134.4765625 35.3046875 C156.22291298 41.29671596 172.89667845 65.59219653 183.56005859 84.00830078 C188.00086517 91.85327697 192.13335718 99.86698336 196.03369141 107.99316406 C196.65839809 109.29055895 197.29040912 110.5844731 197.93115234 111.87402344 C205.5249227 127.22202418 210.40269888 143.67744383 215.67382812 159.92480469 C217.41707657 165.29397195 219.20719528 170.64719734 221 176 C226.28 176 231.56 176 237 176 C237.7734375 173.48890625 238.546875 170.9778125 239.34375 168.390625 C250.42425386 132.59620987 250.42425386 132.59620987 257 118 C257.39477539 117.1145752 257.78955078 116.22915039 258.19628906 115.31689453 C267.17106263 95.37865805 277.34940843 75.41348415 292 59 C292.49967285 58.43990234 292.9993457 57.87980469 293.51416016 57.30273438 C301.97898649 47.99168903 313.96661652 36.00333835 327.125 34.6875 C330 35 330 35 331.9375 36.0625 C333.71392838 39.30186939 332.95088918 41.52331144 332 45 C329.630571 46.85579794 327.69508608 48.09866009 325.0625 49.4375 C323.68310471 50.20147278 322.30679867 50.97104923 320.93359375 51.74609375 C320.25925293 52.12362793 319.58491211 52.50116211 318.89013672 52.89013672 C314.54045871 55.44421011 310.7619648 58.66330078 307 62 C306.28972656 62.61617188 305.57945312 63.23234375 304.84765625 63.8671875 C275.94494114 90.73155562 259.78989966 133.30227331 246.75 169.4375 C246.44989014 170.25379883 246.14978027 171.07009766 245.84057617 171.91113281 C244.0629683 176.9443061 244.0629683 176.9443061 245 182 C246.23668474 183.46449508 247.47432347 184.92823343 248.72265625 186.3828125 C253.42287138 192.33354358 253.76270485 198.74907996 253 206 C251.71945887 211.77732511 249.042589 215.75009874 245 220 C244.34 220.33 243.68 220.66 243 221 C243.28127421 222.48117801 243.57533732 223.95993249 243.875 225.4375 C244.03742188 226.26121094 244.19984375 227.08492188 244.3671875 227.93359375 C244.57601563 228.61550781 244.78484375 229.29742187 245 230 C245.66 230.33 246.32 230.66 247 231 C247.2774707 230.43893555 247.55494141 229.87787109 247.84082031 229.29980469 C273.36504809 178.6599088 304.74253972 132.283049 342.87890625 90.33984375 C344.27373134 88.8011693 345.65696628 87.25189389 347.02734375 85.69140625 C355.71428363 75.839737 364.95758665 66.17860226 375.015625 57.7109375 C377.56643243 55.51161928 379.9874581 53.18598547 382.4375 50.875 C389.20115715 44.59305997 396.50708355 39.06798869 403.90673828 33.5625 C405.84282057 32.11732544 407.76474852 30.65543484 409.68359375 29.1875 C457.22560884 -6.86470626 524.11927396 -35.74880726 585.04296875 -28.46484375 C597.14086189 -26.75648506 608.15562133 -23.91189301 617 -15 C624.3130084 -5.16738367 625.29385322 5.05958317 624 17 C620.65429448 34.62071575 610.55618865 49.33636516 599.19140625 62.76147461 C582.31435781 82.74295824 575.22575782 102.11106715 574.625 128.25 C574.32563446 141.27537461 571.70226344 153.17196499 567.90234375 165.5859375 C566.31043395 171.60900749 565.92309333 177.55553172 565.7097168 183.74804688 C564.92205908 205.84786102 558.99451156 226.93828506 542.59326172 242.59521484 C522.48234483 260.32708977 494.73633249 264.49309609 469 266 C470.59714844 266.80050781 470.59714844 266.80050781 472.2265625 267.6171875 C502.15353842 282.87026898 525.66622939 305.15788942 536.625 337.54296875 C540.75712893 350.49413209 541.85531131 364.08622062 537 377 C535.34482219 379.93487547 533.57303043 382.684383 531.62109375 385.4296875 C528.28373289 390.72121387 527.70191083 395.82173429 527.65625 401.9609375 C527.6416272 402.710336 527.62700439 403.4597345 527.61193848 404.23184204 C527.56573254 406.61284115 527.5313829 408.99376231 527.5 411.375 C527.45852305 414.50810514 527.40472337 417.64065771 527.34375 420.7734375 C527.3384729 421.47890717 527.3331958 422.18437683 527.32775879 422.91122437 C527.15945401 431.45243904 525.06990274 440.01116633 520 447 C517.0622056 449.41039232 513.99839041 451.54473494 510.8828125 453.71875 C502.47886862 460.36902537 499.62948106 470.87697068 497.984375 481.03295898 C495.9499198 493.58383374 493.25315492 505.53298932 483 514 C475.77466791 518.83532944 467.95944394 520.90770011 459.65942383 523.03833008 C447.89754952 526.19286053 438.31677788 532.77823007 430.5625 542.0625 C424.06111745 549.63299879 415.79895056 553.29069473 405.9296875 554.3203125 C382.91462226 555.15218233 361.55215887 540.15821094 345.3125 525.1875 C338.65439879 518.89205716 332.6336613 512.22063791 327 505 C326.34402832 504.1644458 326.34402832 504.1644458 325.67480469 503.31201172 C286.87492137 453.4042114 262.72216107 388.00323653 248 327 C247.98541748 328.21131592 247.97083496 329.42263184 247.95581055 330.6706543 C246.88476459 413.29559647 246.88476459 413.29559647 233.1875 427.9375 C229.65594215 429.6528281 227.68653259 429.2288442 224 428 C216.82288395 420.39956879 215.38446239 408.68438405 213.875 398.8125 C213.70613281 397.77802734 213.53726562 396.74355469 213.36328125 395.67773438 C210.97863837 380.4967598 210.75804162 365.24773856 210.44775391 349.91894531 C210.39583847 347.4146207 210.33874988 344.91045167 210.28125 342.40625 C210.26088684 341.27177429 210.26088684 341.27177429 210.2401123 340.11437988 C210.14364746 335.98777641 209.78997484 332.05221914 209 328 C208.64772339 329.29973755 208.64772339 329.29973755 208.28833008 330.62573242 C199.58113085 362.50205223 189.33049905 393.73078924 176 424 C175.63487305 424.84159668 175.26974609 425.68319336 174.89355469 426.55029297 C162.78751204 454.4376208 149.06165006 481.18265615 130 505 C129.53883789 505.57685547 129.07767578 506.15371094 128.60253906 506.74804688 C111.34418289 528.13420009 89.18292575 549.29565252 61 554 C48.35609028 555.02291577 37.81923557 552.15028959 28 544 C26.04041612 542.03768689 24.10773694 540.06213135 22.1875 538.0625 C12.89386021 528.53243282 3.35799417 524.63382134 -9.3359375 521.26367188 C-18.97471811 518.62415031 -27.14820455 514.68903951 -32.80078125 506.12109375 C-37.26540353 498.22438398 -38.8405753 490.16587713 -40.50048828 481.33837891 C-42.63842318 470.22655108 -45.77336479 461.1380575 -55 454.0625 C-62.19230855 448.49664596 -65.59936111 441.31273866 -67.5546875 432.5 C-68.20796753 427.3654482 -68.28627804 422.23290576 -68.4375 417.0625 C-68.6598675 399.65617741 -68.6598675 399.65617741 -73 383 C-74.9542453 381.83272468 -74.9542453 381.83272468 -77 381 C-78.23046875 379.23046875 -78.23046875 379.23046875 -79.1875 377.1875 C-79.51105469 376.52105469 -79.83460938 375.85460937 -80.16796875 375.16796875 C-86.10557552 359.69673983 -81.60579924 341.2828277 -75.16796875 326.7734375 C-69.35452481 314.30169934 -61.42987124 303.9826568 -52 294 C-51.31421875 293.24976563 -50.6284375 292.49953125 -49.921875 291.7265625 C-39.10569316 280.30948167 -25.91500574 272.97434912 -12 266 C-12.55647217 265.96559814 -13.11294434 265.93119629 -13.6862793 265.89575195 C-41.74549834 264.04540983 -70.73061895 258.19071656 -91 237 C-102.97818461 222.51026056 -107.91234932 203.92102333 -108.13867188 185.37255859 C-108.35353821 172.73197215 -110.69272368 161.38469051 -114.3515625 149.31396484 C-115.55536014 145.01818396 -116.13161498 140.99443209 -116.24609375 136.53515625 C-116.27727295 135.49480225 -116.30845215 134.45444824 -116.34057617 133.38256836 C-116.37256104 132.2869458 -116.4045459 131.19132324 -116.4375 130.0625 C-117.44062934 102.9159187 -124.52816104 84.0475121 -141.54736328 62.82080078 C-149.80730544 52.46741446 -156.65752149 42.15062166 -162 30 C-162.68255859 28.51113281 -162.68255859 28.51113281 -163.37890625 26.9921875 C-167.40867972 16.91073331 -168.12416796 3.47122459 -164.3125 -6.8125 C-159.55222448 -16.30022155 -151.52463528 -22.21959875 -141.5625 -25.8125 C-140.05046986 -26.24073231 -138.5287117 -26.63577674 -137 -27 C-136.19046875 -27.20367187 -135.3809375 -27.40734375 -134.546875 -27.6171875 C-90.9723811 -36.70558194 -38.6967169 -19.42736528 0 0 Z " fill="#002D61" transform="translate(283,249)"/>
<path d="M0 0 C5.00075763 0.51870188 8.80270324 1.59330417 13.2890625 3.84375 C15.05491699 4.71652588 15.05491699 4.71652588 16.85644531 5.60693359 C17.47056274 5.91556335 18.08468018 6.22419312 18.71740723 6.54217529 C21.9751636 8.17793298 25.24909237 9.78058206 28.5234375 11.3828125 C29.1736084 11.70150299 29.8237793 12.02019348 30.49365234 12.34854126 C35.67584256 14.87476032 40.92278824 17.17581213 46.25 19.375 C69.2419799 28.97877855 91.582417 40.28396281 113 53 C113.80421387 53.47244141 114.60842773 53.94488281 115.43701172 54.43164062 C146.26422456 72.58396279 175.19661085 95.10572097 201.36083984 119.47412109 C203.16030995 121.14923104 204.96491065 122.81872201 206.76953125 124.48828125 C232.68958617 148.5115889 232.68958617 148.5115889 236.9765625 156.9140625 C237.01469926 160.30823377 235.1193486 162.77533843 233.375 165.5625 C232.62553657 166.81961176 231.87946336 168.07875063 231.13671875 169.33984375 C230.76981934 169.96101074 230.40291992 170.58217773 230.02490234 171.22216797 C224.38384917 181.00733929 221.68331547 191.14182501 220.0625 202.25 C219.15122091 207.99633014 217.81588501 213.59570045 213.23950195 217.50317383 C210.80923646 219.1275015 208.79191328 219.82635279 205.97265625 220.5703125 C204.53696289 220.95509766 204.53696289 220.95509766 203.07226562 221.34765625 C201.58243164 221.73244141 201.58243164 221.73244141 200.0625 222.125 C199.07314453 222.38925781 198.08378906 222.65351562 197.06445312 222.92578125 C192.72599235 224.07531289 188.40877704 225.15274763 184 226 C183.73485596 225.50935059 183.46971191 225.01870117 183.1965332 224.51318359 C175.7761963 210.81726238 168.01622514 197.35498953 160 184 C159.43909668 183.0625293 158.87819336 182.12505859 158.30029297 181.15917969 C129.31936095 131.89846583 129.31936095 131.89846583 93 88 C93.7528125 89.0209375 94.505625 90.041875 95.28125 91.09375 C103.95151739 102.93346487 112.13493382 115.06162962 120.21826172 127.30761719 C122.15202999 130.22973235 124.10473013 133.13853903 126.06201172 136.04492188 C143.97485591 162.69699585 160.21824648 190.47226315 176.36865234 218.21459961 C177.44779176 220.057147 178.56258673 221.87931231 179.71337891 223.67797852 C181 226 181 226 181 229 C178.96557838 230.59060197 176.98042515 231.99052137 174.8125 233.375 C169.05197976 237.09975111 164.38920808 241.1250039 160.125 246.5625 C155.78919344 251.58984027 151.78816774 254.16394503 145.0625 254.6875 C124.60542307 253.87258897 106.83320926 236.34289535 93.5625 222.4375 C57.22079181 182.56019705 38.58185935 128.48711673 20.5625 78.625 C20.26926849 77.81746277 19.97603699 77.00992554 19.67391968 76.17791748 C16.4339793 67.23707409 13.42686654 58.28962074 10.81771851 49.14402771 C8.41155526 40.79030274 5.37513985 32.6663286 2.31054688 24.53320312 C-0.43711343 16.88520428 -1.92126179 10.14909613 -1 2 C-0.67 1.34 -0.34 0.68 0 0 Z " fill="#1096F1" transform="translate(540,529)"/>
<path d="M0 0 C1.43175293 9.09464343 0.43504915 15.85066812 -2.56640625 24.48828125 C-3.1442411 26.23595543 -3.1442411 26.23595543 -3.73374939 28.01893616 C-4.77308224 31.14538743 -5.8320958 34.26419124 -6.90194702 37.38030243 C-7.79052059 39.97948787 -8.66276894 42.58402631 -9.53494453 45.18875122 C-12.31005315 53.4753708 -15.14301464 61.7412639 -18 70 C-18.35906433 71.03860168 -18.71812866 72.07720337 -19.08807373 73.14727783 C-23.24773462 85.1520737 -27.54404054 97.10205138 -32 109 C-32.24431763 109.65409851 -32.48863525 110.30819702 -32.74035645 110.9821167 C-45.27756661 144.49589582 -59.97364323 177.86505521 -81 207 C-81.42780762 207.60134766 -81.85561523 208.20269531 -82.29638672 208.82226562 C-87.9160058 216.63973186 -94.30288245 223.58998649 -101.0625 230.4375 C-101.7942041 231.18322266 -102.5259082 231.92894531 -103.27978516 232.69726562 C-110.42208139 239.77753791 -118.21170643 245.40684777 -127.25 249.8125 C-128.38953125 250.37582031 -129.5290625 250.93914062 -130.703125 251.51953125 C-137.82788557 254.71892018 -144.19243706 256.30628466 -152 255 C-157.57485897 252.13195992 -161.45221713 247.637864 -165.3359375 242.83203125 C-170.05203887 237.63989148 -175.95194084 233.49299673 -182 230 C-181.41190189 225.81759863 -179.99503405 222.91374548 -177.82421875 219.30859375 C-177.16719971 218.20918457 -176.51018066 217.10977539 -175.83325195 215.97705078 C-175.11817531 214.79709505 -174.40292057 213.61724724 -173.6875 212.4375 C-172.9540252 211.21637087 -172.22120246 209.99484987 -171.48901367 208.77294922 C-170.01833297 206.32106479 -168.5436864 203.87164038 -167.06542969 201.42431641 C-165.27669602 198.45873977 -163.49797057 195.48766201 -161.7265625 192.51171875 C-158.83804756 187.66208431 -155.92538187 182.82747387 -153 178 C-152.52626953 177.21657227 -152.05253906 176.43314453 -151.56445312 175.62597656 C-132.86079528 144.7837703 -112.71259528 114.79934513 -91 86 C-91.33 86 -91.66 86 -92 86 C-93.68643387 87.87007458 -95.32078966 89.75824748 -96.9375 91.6875 C-97.43185547 92.27547363 -97.92621094 92.86344727 -98.43554688 93.46923828 C-103.03239433 98.97459422 -107.44745124 104.60656473 -111.75390625 110.34179688 C-112.5708744 111.42895355 -113.39108052 112.51368615 -114.21484375 113.59570312 C-139.0688622 146.27119383 -160.33663532 182.18284633 -179.99023438 218.16992188 C-181.62536139 221.13339191 -183.31259177 224.06603794 -185 227 C-188.86451188 226.30581916 -192.51211067 225.25880516 -196.25 224.0625 C-200.16228388 222.82331506 -203.95929916 221.76758874 -208 221.0625 C-212.25291553 220.15895018 -214.33471997 218.52757651 -217 215 C-219.57095347 209.78667768 -220.61878819 205.10421352 -221.375 199.375 C-223.57236213 184.81133075 -229.13418802 172.02649574 -239 161 C-237.57560273 156.52547994 -235.37141669 154.00893372 -232.0546875 150.7265625 C-231.56598175 150.23972992 -231.077276 149.75289734 -230.57376099 149.25131226 C-229.53997693 148.22422974 -228.50261153 147.2007409 -227.46191406 146.18066406 C-225.89400492 144.64363067 -224.33675112 143.09645416 -222.78125 141.546875 C-217.87334809 136.67781726 -212.89625526 131.93240493 -207.64501953 127.43115234 C-205.48866871 125.55514633 -203.48956507 123.55078245 -201.5 121.5 C-197.49227442 117.45144869 -193.33134562 113.69608159 -189 110 C-187.94731352 109.08402605 -186.89528457 108.16729612 -185.84375 107.25 C-172.50334974 95.65210376 -158.39074936 85.25076047 -144 75 C-143.41750488 74.58363281 -142.83500977 74.16726563 -142.23486328 73.73828125 C-124.59914147 61.16967927 -105.97932377 50.39242862 -87 40 C-86.22446777 39.57090332 -85.44893555 39.14180664 -84.64990234 38.69970703 C-71.44706052 31.40219191 -57.73190509 25.22612856 -44 19 C-42.57776981 18.35455757 -41.1555704 17.70904729 -39.73339844 17.06347656 C-39.00183533 16.73143219 -38.27027222 16.39938782 -37.51654053 16.05728149 C-36.02190516 15.37881684 -34.52731689 14.70024842 -33.03277588 14.02157593 C-29.39554191 12.37006141 -25.75747249 10.72046317 -22.1171875 9.07568359 C-20.77333041 8.46735891 -19.42957704 7.85880503 -18.0859375 7.25 C-17.45049011 6.96250885 -16.81504272 6.6750177 -16.16033936 6.3788147 C-12.80451789 4.85197669 -9.49885699 3.26045891 -6.2265625 1.5625 C-3 0 -3 0 0 0 Z " fill="#0F94F0" transform="translate(484,528)"/>
<path d="M0 0 C1.10666016 -0.02449219 2.21332031 -0.04898438 3.35351562 -0.07421875 C13.33321756 -0.10958686 21.03085451 2.14989053 28.5625 8.8125 C32.0580776 12.78474727 32.37039273 16.41094057 32.25 21.53515625 C30.49574581 37.47694121 20.41186696 49.60888788 10.55078125 61.43652344 C2.85842936 70.208649 2.85842936 70.208649 -2.67773438 80.32958984 C-4.80909869 85.66978404 -7.01917793 90.81932947 -12.35095215 93.5447998 C-19.13889261 95.82424872 -26.23527939 96.61481029 -33.3125 97.5 C-37.48800444 98.10407701 -41.65779469 98.7441175 -45.828125 99.3828125 C-47.36784721 99.60966232 -47.36784721 99.60966232 -48.93867493 99.84109497 C-63.74777396 102.1056292 -78.04824033 106.51404878 -91.875 112.25 C-92.92776123 112.67998291 -93.98052246 113.10996582 -95.06518555 113.55297852 C-102.90557301 116.79791925 -110.56092888 120.28388035 -118.04003906 124.29150391 C-119.46774922 125.05637325 -120.89983643 125.81309931 -122.33496094 126.56396484 C-135.85064921 133.63982518 -148.52923478 141.68826787 -161.0625 150.375 C-162.07981201 151.07737793 -162.07981201 151.07737793 -163.11767578 151.79394531 C-172.03851413 157.97825934 -180.58534163 164.5995858 -189.0625 171.375 C-189.95839844 172.0865625 -190.85429688 172.798125 -191.77734375 173.53125 C-196.98286259 177.67592851 -202.14107326 181.8770552 -207.28515625 186.09765625 C-209.10271344 187.58800202 -210.92292748 189.07511494 -212.74609375 190.55859375 C-217.72792065 194.61491434 -222.66609797 198.7163725 -227.5625 202.875 C-233.33809519 207.78034659 -239.1842481 212.59298597 -245.0625 217.375 C-246.79200867 218.79124911 -248.52116817 220.20792473 -250.25 221.625 C-251.16136719 222.36878906 -252.07273437 223.11257813 -253.01171875 223.87890625 C-255.22846705 225.69260941 -257.43848108 227.51324121 -259.64453125 229.33984375 C-269.06098887 237.1042703 -278.73937922 244.437388 -288.62060547 251.59912109 C-291.13207061 253.42559555 -293.63120832 255.26803533 -296.12890625 257.11328125 C-297.75235529 258.30502661 -299.37604457 259.49644478 -301 260.6875 C-301.7513623 261.24501953 -302.50272461 261.80253906 -303.27685547 262.37695312 C-304.32897217 263.14362305 -304.32897217 263.14362305 -305.40234375 263.92578125 C-306.01456787 264.37606689 -306.62679199 264.82635254 -307.25756836 265.2902832 C-309.18321116 266.44754426 -310.86779637 266.94513455 -313.0625 267.375 C-312.45599066 262.83347104 -310.5998013 259.19941558 -308.44921875 255.22265625 C-307.90085609 254.19054771 -307.90085609 254.19054771 -307.34141541 253.1375885 C-306.15072587 250.90071477 -304.9507109 248.66900819 -303.75 246.4375 C-302.92261477 244.89002476 -302.09563143 243.34233458 -301.26904297 241.79443359 C-299.2380918 237.99570856 -297.19884376 234.20151385 -295.15655518 230.40887451 C-293.63973039 227.58906127 -292.13112296 224.76486299 -290.62109375 221.94140625 C-273.29425626 189.69673512 -252.83611149 159.86602346 -229.03564453 132.04907227 C-226.24789904 128.79076483 -223.54370598 125.4824043 -220.875 122.125 C-211.39466936 110.46745057 -200.77068722 98.81247123 -189.3125 89.0625 C-186.12064878 86.31701878 -183.02331173 83.48910385 -179.9375 80.625 C-174.16917114 75.37240893 -168.12779137 70.54803608 -161.93359375 65.80908203 C-160.0423662 64.35956864 -158.16194673 62.89673332 -156.28125 61.43359375 C-117.33598237 31.3837793 -71.90686636 12.77928313 -24.0625 2.375 C-23.15959229 2.17632324 -22.25668457 1.97764648 -21.32641602 1.77294922 C-14.2006485 0.32960885 -7.25923453 0.00848537 0 0 Z " fill="#0F93F0" transform="translate(853.0625,239.625)"/>
<path d="M0 0 C1.02400406 -0.00151062 1.02400406 -0.00151062 2.06869507 -0.00305176 C12.36357586 0.0072557 21.79876688 0.71318761 31.8125 3.25 C33.01390625 3.48203125 34.2153125 3.7140625 35.453125 3.953125 C56.78179634 8.15283293 78.31934298 16.78161627 97.8125 26.25 C98.47668945 26.57033203 99.14087891 26.89066406 99.82519531 27.22070312 C103.84367257 29.16893836 107.83158808 31.17105572 111.80175781 33.21582031 C113.16085311 33.91484019 114.52225496 34.60939076 115.88574219 35.29980469 C137.6748081 46.34081027 157.43398091 60.19776968 175.8125 76.25 C176.43358643 76.78786133 177.05467285 77.32572266 177.69458008 77.87988281 C182.42856768 81.99299128 187.05581958 86.20486891 191.625 90.5 C192.66321899 91.4756189 192.66321899 91.4756189 193.72241211 92.47094727 C201.36753979 99.68174306 209.00569227 106.91754473 215.828125 114.92578125 C217.42459316 116.7956603 219.04028363 118.64149853 220.671875 120.48046875 C228.30998243 129.12742683 235.4122954 138.08019942 242.33837891 147.30419922 C243.64800571 149.0328719 244.97709003 150.74190986 246.32421875 152.44140625 C264.9392403 176.04094597 280.90098104 202.09741237 294.56298828 228.84277344 C296.98966035 233.5178392 299.53216663 238.13047563 302.0625 242.75 C302.54630127 243.63413574 303.03010254 244.51827148 303.52856445 245.42919922 C303.99866943 246.28787598 304.46877441 247.14655273 304.953125 248.03125 C305.41525391 248.876875 305.87738281 249.7225 306.35351562 250.59375 C307.39703175 252.49359193 308.44874959 254.38893814 309.50585938 256.28125 C310.05564453 257.27125 310.60542969 258.26125 311.171875 259.28125 C311.67686523 260.18423828 312.18185547 261.08722656 312.70214844 262.01757812 C313.8125 264.25 313.8125 264.25 313.8125 266.25 C294.31359382 263.61501268 271.01722911 237.58215538 256.39379883 225.13256836 C253.06420695 222.29912658 249.70340445 219.50969713 246.3125 216.75 C241.7079642 213.00212202 237.17230809 209.18016556 232.6484375 205.3359375 C228.34740247 201.68719215 223.98903903 198.11355273 219.61328125 194.5546875 C217.0961052 192.48337109 214.6090232 190.38296799 212.13012695 188.26635742 C206.0481583 183.07523276 199.85956915 178.0539623 193.5390625 173.15625 C191.02711959 171.20913049 188.54816036 169.22831148 186.0859375 167.21875 C166.04050154 151.02168387 143.88400571 135.79847144 120.8125 124.25 C119.96703613 123.81719727 119.12157227 123.38439453 118.25048828 122.93847656 C88.5522765 107.80690768 57.98691205 99.41662833 25.21484375 94.23046875 C23.52597046 93.95807373 23.52597046 93.95807373 21.80297852 93.68017578 C19.39819772 93.33425173 17.06835544 93.14563749 14.6484375 93.00390625 C11.8125 92.25 11.8125 92.25 9.94921875 89.546875 C9.47097656 88.37640625 8.99273437 87.2059375 8.5 86 C4.06824706 76.00607597 -2.45481376 68.1677122 -9.8125 60.125 C-20.74319495 48.15511926 -32.09442041 32.47543226 -31.625 15.48828125 C-30.78148825 11.17281489 -28.35477229 8.19723022 -25.1875 5.25 C-17.11064981 -0.01288167 -9.3927583 0.00948834 0 0 Z " fill="#0E90EF" transform="translate(170.1875,240.75)"/>
<path d="M0 0 C10.13790469 0.50599648 19.98662775 1.58592267 30 3.3125 C30.65829803 3.42526276 31.31659607 3.53802551 31.99484253 3.65420532 C41.49370498 5.28873817 50.82620171 6.99064753 60 10 C61.02383789 10.33128906 62.04767578 10.66257812 63.10253906 11.00390625 C101.4352595 23.51638484 133.85391418 41.80030298 166 66 C166.62277832 66.46680176 167.24555664 66.93360352 167.88720703 67.41455078 C175.09242753 72.82604103 182.0416907 78.49531813 188.88671875 84.3515625 C191.70214402 86.75736114 194.56128421 89.10452263 197.4375 91.4375 C202.30049424 95.39443418 207.05700203 99.46435942 211.80615234 103.55615234 C216.22387591 107.3546932 220.70998203 111.05936042 225.234375 114.73046875 C227.74094751 116.78741596 230.21465643 118.87587225 232.68017578 120.98144531 C239.33463986 126.66252233 246.13655679 132.11949962 253.04882812 137.48291016 C255.15698637 139.12206122 257.25845721 140.76954925 259.359375 142.41796875 C266.58823289 148.0802251 273.84632997 153.69247921 281.25 159.125 C281.84546631 159.56199219 282.44093262 159.99898437 283.05444336 160.44921875 C286.64414695 163.06326457 290.29077904 165.56090622 294 168 C293.67 168.99 293.34 169.98 293 171 C283.30709074 171.27219991 274.19252241 170.73545885 264.59988403 169.1491394 C262.47767639 168.79848449 260.35343037 168.46337851 258.22827148 168.13110352 C251.21776835 167.02922753 244.21725125 165.87067429 237.21875 164.6953125 C209.17176406 160.03999473 181.0115283 157.63255035 152.65625 155.74609375 C151.84242167 155.69194935 151.02859333 155.63780495 150.19010353 155.58201981 C141.94628426 155.03513143 133.70190378 154.49853314 125.45590687 153.98547268 C110.26224501 153.03904483 95.08924363 152.03009017 79.94140625 150.5 C78.7978215 150.38679916 77.65423676 150.27359833 76.47599792 150.15696716 C57.33809527 148.12094038 35.68063543 143.80199899 22 129 C11.44501871 113.90758997 11.73426281 96.77688898 11 79 C24.85020619 78.75922348 38.28398786 79.06558697 52 81 C52.89380371 81.11827148 53.78760742 81.23654297 54.70849609 81.35839844 C72.52931884 83.7192895 90.16331352 86.99095321 107.81616211 90.35791016 C108.73183456 90.53180267 109.64750702 90.70569519 110.59092712 90.88485718 C112.3256832 91.21481572 114.05997246 91.54724089 115.79371643 91.88247681 C118.90669035 92.47488643 121.82317477 93 125 93 C90.69625478 84.12387522 90.69625478 84.12387522 56 77 C55.01273926 76.8242041 54.02547852 76.6484082 53.00830078 76.46728516 C38.71879817 73.94426997 24.37998677 71.92799876 10 70 C8.89323172 62.76388123 7.79107043 55.52707083 6.69189453 48.28979492 C6.31857023 45.83521178 5.9442468 43.38078035 5.56884766 40.92651367 C3.4863281 27.30683579 1.4574723 13.70242949 0 0 Z " fill="#1095F1" transform="translate(186,344)"/>
<path d="M0 0 C-1.31719933 15.54691032 -3.59176199 30.85930023 -6.125 46.25 C-6.50185642 48.56761826 -6.87816169 50.88532622 -7.25390625 53.203125 C-8.16294213 58.80312956 -9.07868915 64.40200251 -10 70 C-11.00417969 70.12117188 -12.00835938 70.24234375 -13.04296875 70.3671875 C-27.76381656 72.16210355 -42.35243554 74.51501768 -56.9375 77.1875 C-58.17780975 77.41468216 -58.17780975 77.41468216 -59.44317627 77.64645386 C-75.42780975 80.59080992 -91.22041839 84.09508665 -107 88 C-108.19109375 88.29358398 -109.3821875 88.58716797 -110.609375 88.88964844 C-117.41216869 90.56992362 -124.20938949 92.27114935 -131 94 C-121.28088957 92.70293407 -111.68854433 91.05324574 -102.0625 89.1875 C-72.26119761 83.51601149 -42.46474198 78.17165354 -12 79 C-11.68674402 98.0041963 -12.1708733 116.11437313 -25.5625 130.8125 C-54.21440035 156.5257439 -103.70646184 153.12145313 -139.87615967 154.76834106 C-182.72356443 156.74557415 -225.09698649 160.56673387 -267.3269043 168.16601562 C-284.76057038 171.29492601 -284.76057038 171.29492601 -291.8125 171.125 C-292.80894531 171.10695313 -293.80539062 171.08890625 -294.83203125 171.0703125 C-295.54746094 171.04710937 -296.26289062 171.02390625 -297 171 C-297 170.34 -297 169.68 -297 169 C-295.66162109 167.84594727 -295.66162109 167.84594727 -293.7734375 166.56640625 C-293.07831055 166.08800293 -292.38318359 165.60959961 -291.66699219 165.11669922 C-290.91063477 164.60381348 -290.15427734 164.09092773 -289.375 163.5625 C-281.9047343 158.39881529 -274.73801456 152.96846863 -267.64550781 147.30273438 C-264.99909517 145.20759226 -262.31018679 143.17022827 -259.625 141.125 C-252.6512788 135.79052429 -245.85754997 130.24001949 -239.06152344 124.68212891 C-237.00637804 123.00520425 -234.94566508 121.33540042 -232.8828125 119.66796875 C-226.11638548 114.19577762 -219.40613989 108.6737882 -212.79003906 103.02075195 C-208.39450759 99.28617717 -203.86746223 95.73905371 -199.3112793 92.20361328 C-194.99821478 88.83588619 -190.82438203 85.33127323 -186.6875 81.75 C-181.5751656 77.32951862 -176.40058153 73.06720814 -171 69 C-169.80712495 68.08745747 -168.61443356 67.17467485 -167.421875 66.26171875 C-144.01735616 48.42517558 -118.98464827 32.83083282 -92 21 C-91.22672363 20.66033203 -90.45344727 20.32066406 -89.65673828 19.97070312 C-62.16657905 8.11909381 -29.92180994 -0.28496962 0 0 Z " fill="#1096F1" transform="translate(838,344)"/>
<path d="M0 0 C1.13668121 -0.00261841 2.27336243 -0.00523682 3.44448853 -0.00793457 C33.13933814 -0.01520845 62.2292227 3.01969636 91.4375 8.3125 C88.56368694 11.49832704 86.06627569 13.16023878 82.09765625 14.7578125 C81.04521729 15.189729 79.99277832 15.62164551 78.90844727 16.06665039 C77.22126587 16.74522095 77.22126587 16.74522095 75.5 17.4375 C20.95703994 39.95683063 -31.83545657 70.75056706 -76.3828125 109.5703125 C-79.32018705 112.12385589 -82.33640762 114.56744267 -85.375 117 C-89.83740476 120.60425 -93.84640807 124.49348774 -97.78515625 128.66015625 C-99.5625 130.3125 -99.5625 130.3125 -101.5625 130.3125 C-101.5625 130.9725 -101.5625 131.6325 -101.5625 132.3125 C-103.01147461 133.74243164 -103.01147461 133.74243164 -105.02734375 135.41015625 C-109.61703964 139.31488322 -113.87726383 143.4791992 -118.125 147.75 C-118.84107422 148.46220703 -119.55714844 149.17441406 -120.29492188 149.90820312 C-124.37662873 153.99733802 -128.28431944 158.18045096 -132.04101562 162.57055664 C-134.10810186 164.9371581 -136.30736306 167.12570054 -138.5625 169.3125 C-140.48608398 168.58837891 -140.48608398 168.58837891 -142.5625 167.3125 C-145.24481399 160.76826624 -144.86123979 152.90063565 -145 145.9375 C-144.89213152 122.35320424 -144.89213152 122.35320424 -154.15234375 101.765625 C-154.97412109 101.01539063 -154.97412109 101.01539063 -155.8125 100.25 C-159.59052461 96.17396327 -159.31351837 91.24638195 -159.20214844 85.99267578 C-158.14981279 67.35187531 -147.20485679 52.10447048 -134.5625 39.3125 C-133.59570312 38.23742187 -133.59570312 38.23742187 -132.609375 37.140625 C-118.31055749 21.59843205 -96.6757606 13.1634798 -76.5625 8.3125 C-75.24071479 7.97462512 -73.91910822 7.63605085 -72.59765625 7.296875 C-65.12040315 5.41816819 -57.60805237 3.87261772 -50 2.625 C-49.29399658 2.50568115 -48.58799316 2.3863623 -47.8605957 2.26342773 C-32.07978774 -0.18412833 -15.92542625 0.03530078 0 0 Z " fill="#0F93F0" transform="translate(379.5625,516.6875)"/>
<path d="M0 0 C3.38358255 0.01143999 6.7668519 0.00458455 10.150424 -0.00688648 C25.15441201 -0.04996024 39.91081481 0.34114701 54.79882812 2.26074219 C56.49089951 2.46515735 58.18303957 2.66900474 59.87524414 2.87231445 C88.96014103 6.44955088 117.50665328 15.85958377 139.79882812 35.26074219 C140.79140625 36.05480469 141.78398438 36.84886719 142.80664062 37.66699219 C152.60889684 46.16398713 158.66294396 57.55197376 163.79882812 69.26074219 C164.18167969 70.09734375 164.56453125 70.93394531 164.95898438 71.79589844 C167.13624919 77.53780147 167.12794831 83.50180468 167.23632812 89.57324219 C167.25888672 90.44625977 167.28144531 91.31927734 167.3046875 92.21875 C167.28370755 97.65465485 166.65451925 100.1900497 162.79882812 104.26074219 C157.38786983 115.82962609 156.02220143 129.34225037 155.31054688 141.94824219 C155.27161316 142.62057892 155.23267944 143.29291565 155.19256592 143.98562622 C155.00085427 147.37480347 154.83575207 150.76257583 154.70849609 154.15478516 C154.61592529 156.0286792 154.61592529 156.0286792 154.52148438 157.94042969 C154.47773682 159.06175293 154.43398926 160.18307617 154.38891602 161.33837891 C153.68680404 164.81553256 152.50008878 166.04292184 149.79882812 168.26074219 C139.14984164 156.70668813 139.14984164 156.70668813 135.11132812 152.01074219 C129.80802296 145.91194125 124.04865338 140.423604 117.91992188 135.16699219 C115.50613644 132.99769699 113.25400386 130.70715432 110.98632812 128.38574219 C106.72367926 124.07087097 102.23150635 120.24061631 97.49414062 116.45996094 C94.96019483 114.39240807 92.56735007 112.23793464 90.17382812 110.01074219 C75.4126803 96.58512678 58.45562806 85.17591681 41.79882812 74.26074219 C40.59421778 73.45632905 39.38980062 72.65162658 38.18554688 71.84667969 C14.01999899 55.81964737 -11.53695933 41.6732646 -38.15039062 30.16064453 C-41.31862582 28.77039276 -44.44759985 27.30011782 -47.57617188 25.82324219 C-54.39383636 22.61049115 -61.26367616 19.51914977 -68.14990234 16.45629883 C-73.23704445 14.18344044 -78.23462402 11.78678203 -83.20117188 9.26074219 C-60.28764062 -2.85358615 -24.9446578 -0.08508674 0 0 Z " fill="#1096F1" transform="translate(634.201171875,516.7392578125)"/>
<path d="M0 0 C0 4.08334189 -1.56564802 5.27328509 -4.125 8.4375 C-22.86945473 32.18047599 -39.88201285 58.11658125 -55.1640625 84.21484375 C-58.4206372 89.76450264 -61.87465183 95.18653409 -65.3125 100.625 C-71.45595891 110.37152098 -77.28638952 120.26370856 -82.98950195 130.27197266 C-86.21152596 135.92597309 -89.4285912 141.55785325 -93 147 C-93.33 147 -93.66 147 -94 147 C-94.56749404 141.25299686 -92.74829413 137.75711372 -90.0625 132.875 C-89.6301001 132.07094727 -89.1977002 131.26689453 -88.75219727 130.43847656 C-82.85475953 119.65516501 -76.35189064 109.21181255 -69.91275024 98.74662781 C-67.30011342 94.49866871 -64.73293013 90.22590468 -62.1875 85.9375 C-50.16995473 65.90825789 -37.28336972 46.49480733 -23 28 C-22.58186035 27.45714355 -22.1637207 26.91428711 -21.73291016 26.35498047 C-6.09205247 6.09205247 -6.09205247 6.09205247 0 0 Z " fill="#00255B" transform="translate(394,611)"/>
<path d="M0 0 C4.00014999 2.95011062 7.01102962 6.25751622 10 10.1875 C10.70286133 11.09846436 10.70286133 11.09846436 11.41992188 12.02783203 C12.42707561 13.33508053 13.43155412 14.6443937 14.43359375 15.95556641 C16.01843608 18.0240623 17.61715369 20.08117602 19.21875 22.13671875 C43.28550228 53.13875115 63.58037985 86.95889074 83 121 C83.87359074 122.52870708 84.74727477 124.05736087 85.62109375 125.5859375 C86.91152666 127.84356211 88.199202 130.10265037 89.484375 132.36328125 C90.51845242 134.16225614 91.60058402 135.93424181 92.72265625 137.6796875 C94 140 94 140 93.6875 142.8125 C93.460625 143.534375 93.23375 144.25625 93 145 C89.14891646 140.5374885 86.31969456 135.63978109 83.375 130.5625 C82.21446066 128.58149259 81.05294797 126.60105517 79.890625 124.62109375 C79.26607422 123.55616699 78.64152344 122.49124023 77.99804688 121.39404297 C57.54541353 86.65155657 36.14342377 52.56524228 13.0625 19.5 C12.53841553 18.74879883 12.01433105 17.99759766 11.47436523 17.22363281 C8.24254616 12.63992453 4.84597085 8.2257308 1.31811523 3.86523438 C0 2 0 2 0 0 Z " fill="#002256" transform="translate(630,613)"/>
<path d="M0 0 C0.495 0.99 0.495 0.99 1 2 C-2.07456019 10.50025464 -6.98624996 18.30580604 -11.5625 26.0625 C-17.97593035 36.40635277 -17.97593035 36.40635277 -21 48 C-16.29157376 45.88673474 -16.29157376 45.88673474 -13 42 C-12.34 42 -11.68 42 -11 42 C-10.34 43.65 -9.68 45.3 -9 47 C-11.84989258 49.08922903 -14.70566465 51.17027731 -17.5625 53.25 C-18.76229492 54.12978516 -18.76229492 54.12978516 -19.98632812 55.02734375 C-24.52782358 58.32687922 -29.06444116 61.32353588 -34 64 C-35 61 -35 61 -34.20239258 58.8972168 C-33.77079834 58.08937744 -33.3392041 57.28153809 -32.89453125 56.44921875 C-32.41137451 55.53382324 -31.92821777 54.61842773 -31.43041992 53.67529297 C-30.89650635 52.68932129 -30.36259277 51.70334961 -29.8125 50.6875 C-29.27020752 49.6680127 -28.72791504 48.64852539 -28.16918945 47.59814453 C-26.45850203 44.39193187 -24.73194699 41.19477305 -23 38 C-22.45956055 37.00145996 -21.91912109 36.00291992 -21.36230469 34.97412109 C-18.36339521 29.44171372 -15.34372443 23.92092855 -12.31591797 18.40429688 C-9.51432103 13.28553497 -6.7560758 8.1433809 -4 3 C-3.34 3 -2.68 3 -2 3 C-1.34 2.01 -0.68 1.02 0 0 Z " fill="#0780EA" transform="translate(575,443)"/>
<path d="M0 0 C1.79717966 9.52426047 0.01305825 17.15905269 -3.0871582 26.0949707 C-3.82222146 28.2155453 -4.52370442 30.34515913 -5.22070312 32.47851562 C-8.67429275 42.83714637 -8.67429275 42.83714637 -11 44 C-11.72693904 45.97888961 -12.39816251 47.97954558 -13 50 C-14.76086956 45.86301729 -13.05757398 42.35267882 -11.625 38.375 C-11.39039063 37.694375 -11.15578125 37.01375 -10.9140625 36.3125 C-10.04506199 33.81412353 -9.18422621 31.36845242 -8 29 C-7.7677354 26.28737884 -7.58063765 23.59226874 -7.4375 20.875 C-7.39431641 20.12089844 -7.35113281 19.36679687 -7.30664062 18.58984375 C-7.2005168 16.72678112 -7.09974999 14.86341476 -7 13 C-10.1715057 12.23777258 -11.65189867 11.88396622 -14.8125 12.9375 C-18.77289775 14.25763258 -21.84339129 14.14333133 -26 14 C-24.55161985 10.23431159 -22.92576252 9.11146279 -19.31640625 7.421875 C-18.38892578 6.98359375 -17.46144531 6.5453125 -16.50585938 6.09375 C-15.53455078 5.6503125 -14.56324219 5.206875 -13.5625 4.75 C-12.59505859 4.29109375 -11.62761719 3.8321875 -10.63085938 3.359375 C-3.42719959 0 -3.42719959 0 0 0 Z " fill="#067EE8" transform="translate(484,528)"/>
<path d="M0 0 C0 0.99 0 1.98 0 3 C-0.66 3 -1.32 3 -2 3 C-2.2475 3.58265625 -2.495 4.1653125 -2.75 4.765625 C-4.18525446 7.33114236 -5.77663013 8.83724798 -8 10.75 C-9.051875 11.67039062 -9.051875 11.67039062 -10.125 12.609375 C-12 14 -12 14 -14 14 C-14 14.66 -14 15.32 -14 16 C-16.34841107 18.62469472 -18.5684405 20.73688581 -21.58203125 22.57421875 C-26.5170223 25.80644025 -30.45414547 30.24653355 -34.5625 34.4375 C-35.39974609 35.28376953 -36.23699219 36.13003906 -37.09960938 37.00195312 C-41.37947057 41.3238279 -41.37947057 41.3238279 -45.62133789 45.68286133 C-47.99012326 48.12328247 -49.52313504 49.61368167 -53 50 C-52.34 49.236875 -51.68 48.47375 -51 47.6875 C-48.70149462 45.15722061 -48.70149462 45.15722061 -49 42 C-47.75 40.39355469 -47.75 40.39355469 -46 38.671875 C-45.36416992 38.04047607 -44.72833984 37.40907715 -44.07324219 36.75854492 C-43.38907227 36.0957251 -42.70490234 35.43290527 -42 34.75 C-41.3080957 34.06977783 -40.61619141 33.38955566 -39.90332031 32.6887207 C-36.01808812 28.89079196 -32.09369589 25.16673347 -27.94140625 21.66015625 C-25.46555003 19.54297538 -23.08338732 17.33218171 -20.6875 15.125 C-4.86342046 0.73346248 -4.86342046 0.73346248 0 0 Z " fill="#0A88EC" transform="translate(694,305)"/>
<path d="M0 0 C6.3443047 0.413759 11.65954631 2.53617427 17 6 C17.99 7.32 18.98 8.64 20 10 C15.71 10.99 11.42 11.98 7 13 C6.979375 14.4025 6.95875 15.805 6.9375 17.25 C6.92589844 18.03890625 6.91429687 18.8278125 6.90234375 19.640625 C6.99664798 21.91901512 7.43284194 23.8022625 8 26 C8.03888349 28.33300933 8.0448635 30.66709801 8 33 C7.01 33.495 7.01 33.495 6 34 C-2.6140665 11.9411823 -2.6140665 11.9411823 -1 2 C-0.67 1.34 -0.34 0.68 0 0 Z " fill="#077EE9" transform="translate(540,529)"/>
<path d="M0 0 C3.87616483 4.92164255 6.64682036 10.44607488 9.625 15.9375 C10.223125 17.02224609 10.82125 18.10699219 11.4375 19.22460938 C12.00726563 20.27326172 12.57703125 21.32191406 13.1640625 22.40234375 C13.68436035 23.35616943 14.2046582 24.30999512 14.74072266 25.29272461 C15.96024607 27.91453445 16.48932549 30.17248513 17 33 C17.53625 34.051875 18.0725 35.10375 18.625 36.1875 C19.305625 37.5796875 19.305625 37.5796875 20 39 C19.67 39.66 19.34 40.32 19 41 C16.45570845 39.27459564 13.91456833 37.54483251 11.375 35.8125 C10.66214844 35.32974609 9.94929688 34.84699219 9.21484375 34.34960938 C4.94714476 31.43269585 0.82096222 28.48949073 -3 25 C-3 24.34 -3 23.68 -3 23 C1.95 23.99 1.95 23.99 7 25 C5.50484233 20.29025332 3.96434053 15.82417917 1.8125 11.375 C-0.05606705 7.33235874 -0.37579675 4.41561177 0 0 Z " fill="#0479E7" transform="translate(461,464)"/>
<path d="M0 0 C6.1428936 1.5357234 10.84449912 4.98086464 16 8.5 C16.93481201 9.13147949 17.86962402 9.76295898 18.83276367 10.41357422 C26.31263116 15.48517299 33.72219875 20.64244682 41 26 C41.64807617 26.47679199 42.29615234 26.95358398 42.96386719 27.44482422 C51.49854659 33.74365233 59.85533933 40.20055355 68 47 C69.97618403 48.64941345 71.95533245 50.29528203 73.9375 51.9375 C74.81277344 52.66839844 75.68804687 53.39929688 76.58984375 54.15234375 C78.86723871 56.02564879 78.86723871 56.02564879 81.19140625 57.06640625 C83 58 83 58 85 61 C85.61875 61.28875 86.2375 61.5775 86.875 61.875 C89 63 89 63 90.75 65.3125 C92.84398682 67.81365092 94.25570565 68.88899758 97 70.5 C100.5110355 72.57293609 102.53806282 74.7174171 105 78 C106.93782797 79.75947067 108.94975198 81.3691209 111 83 C110.67 83.66 110.34 84.32 110 85 C109.04480469 84.16597656 108.08960938 83.33195312 107.10546875 82.47265625 C100.39256575 76.62480908 93.65122716 70.83640692 86.73046875 65.234375 C84.23444471 63.19184889 81.77417803 61.11529456 79.32202148 59.02075195 C73.23967108 53.82690621 67.04866824 48.80520142 60.7265625 43.90625 C58.21461959 41.95913049 55.73566036 39.97831148 53.2734375 37.96875 C39.35518503 26.72885387 24.36745319 17.05540512 9.42480469 7.25146484 C8.85354858 6.87528015 8.28229248 6.49909546 7.69372559 6.11151123 C6.53946878 5.3540276 5.38184154 4.60166091 4.22131348 3.8538208 C2.79743804 2.92783849 1.39610912 1.96733853 0 1 C0 0.67 0 0.34 0 0 Z " fill="#1BB0F3" transform="translate(303,370)"/>
<path d="M0 0 C1.43659973 0.3569973 1.43659973 0.3569973 2.90222168 0.72120667 C4.90638561 1.22123455 6.90967715 1.72477121 8.91210938 2.23168945 C11.98572618 3.00819504 15.06286604 3.76939564 18.140625 4.52929688 C20.09397724 5.01862501 22.04711063 5.50882783 24 6 C25.38112976 6.34072792 25.38112976 6.34072792 26.79016113 6.68833923 C27.63864624 6.90518875 28.48713135 7.12203827 29.36132812 7.34545898 C30.10838013 7.53341537 30.85543213 7.72137177 31.62512207 7.9150238 C33.46875 8.56640625 33.46875 8.56640625 35.46875 10.56640625 C28.63478054 9.89074621 21.94447127 8.8292543 15.1953125 7.5703125 C14.14975189 7.37670639 13.10419128 7.18310028 12.02694702 6.98362732 C9.83323153 6.57603849 7.63984526 6.16667414 5.44677734 5.75561523 C2.08434402 5.12714819 -1.27999579 4.5096791 -4.64453125 3.89257812 C-6.78137504 3.49415961 -8.91809829 3.09509396 -11.0546875 2.6953125 C-12.06091156 2.51190811 -13.06713562 2.32850372 -14.10385132 2.13954163 C-15.03557159 1.96273361 -15.96729187 1.7859256 -16.92724609 1.60375977 C-18.15560684 1.37511986 -18.15560684 1.37511986 -19.40878296 1.14186096 C-21.53125 0.56640625 -21.53125 0.56640625 -24.53125 -1.43359375 C-17.32237495 -5.70052294 -7.61319349 -1.92885368 0 0 Z " fill="#012359" transform="translate(281.53125,428.43359375)"/>
<path d="M0 0 C2 1 2 1 3.296875 4.32299805 C3.78895305 5.80002759 4.27273571 7.2798362 4.75 8.76171875 C5.0087793 9.54513138 5.26755859 10.32854401 5.53417969 11.13569641 C6.36316888 13.65071051 7.18170578 16.16898823 8 18.6875 C8.55139486 20.36676268 9.10347001 22.04580214 9.65625 23.72460938 C10.90080838 27.5081316 12.14070429 31.29310078 13.36767578 35.08236694 C13.95247526 36.85587297 14.57239514 38.61769434 15.1953125 40.37817383 C16.03778797 43.12312046 16.01635428 44.35747888 15 47 C12.98227084 41.79638269 11.14440885 36.54285708 9.375 31.25 C9.15690674 30.60023193 8.93881348 29.95046387 8.71411133 29.28100586 C7.69363205 26.21004937 6.71750595 23.1570262 6 20 C5.01 20.66 4.02 21.32 3 22 C3.66 24.64 4.32 27.28 5 30 C1.79180546 28.39590273 1.4697805 25.59151669 0.25 22.3125 C-0.21921875 21.09175781 -0.6884375 19.87101562 -1.171875 18.61328125 C-2.10187179 14.55551222 -1.80093023 12.70747057 0 9 C0.66 8.67 1.32 8.34 2 8 C1.67 6.35 1.34 4.7 1 3 C0.34 3 -0.32 3 -1 3 C-0.67 2.01 -0.34 1.02 0 0 Z " fill="#0A2453" transform="translate(487,379)"/>
<path d="M0 0 C0.66 0.33 1.32 0.66 2 1 C0.68 2.65 -0.64 4.3 -2 6 C-1.34 6.33 -0.68 6.66 0 7 C-3.21103753 10.2851121 -6.43174384 13.56031039 -9.66186523 16.82666016 C-10.75964284 17.93953809 -11.85471467 19.05509176 -12.94702148 20.17333984 C-14.51625669 21.77890324 -16.09492457 23.3746384 -17.67578125 24.96875 C-18.16339432 25.47184692 -18.65100739 25.97494385 -19.15339661 26.49328613 C-20.37995603 27.72044942 -21.68522878 28.86785408 -23 30 C-23.99 30 -24.98 30 -26 30 C-28.18777466 31.9375006 -28.18777466 31.9375006 -30 34 C-30.66 33.67 -31.32 33.34 -32 33 C-30.82244141 31.83984375 -30.82244141 31.83984375 -29.62109375 30.65625 C-22.8912593 24.04836609 -22.8912593 24.04836609 -16.5625 17.0625 C-11.43086291 11.01999733 -5.6390988 5.56278016 0 0 Z " fill="#001E50" transform="translate(271,654)"/>
<path d="M0 0 C1.22916551 3.68749654 0.66076976 4.36218454 -0.94921875 7.7890625 C-1.38556641 8.73136719 -1.82191406 9.67367188 -2.27148438 10.64453125 C-2.73876953 11.62808594 -3.20605469 12.61164063 -3.6875 13.625 C-4.58752668 15.55455361 -5.48726944 17.48423968 -6.38671875 19.4140625 C-6.8254834 20.34766602 -7.26424805 21.28126953 -7.71630859 22.24316406 C-9.53033674 26.13894303 -11.27364645 30.06472226 -13 34 C-13.99 34 -14.98 34 -16 34 C-16.103125 34.639375 -16.20625 35.27875 -16.3125 35.9375 C-16.539375 36.618125 -16.76625 37.29875 -17 38 C-18.485 38.495 -18.485 38.495 -20 39 C-21.02281518 41.09719872 -21.02281518 41.09719872 -21.6875 43.5625 C-21.93886719 44.38878906 -22.19023438 45.21507812 -22.44921875 46.06640625 C-22.63097656 46.70449219 -22.81273437 47.34257812 -23 48 C-23.33 48 -23.66 48 -24 48 C-23.42511855 42.25764482 -22.31766078 37.05313416 -20.5625 31.5625 C-20.34529297 30.84384766 -20.12808594 30.12519531 -19.90429688 29.38476562 C-19.33320231 27.56858201 -18.67331365 25.78082022 -18 24 C-17.34 23.67 -16.68 23.34 -16 23 C-15.67 23.66 -15.34 24.32 -15 25 C-14.34 24.34 -13.68 23.68 -13 23 C-12.67 24.32 -12.34 25.64 -12 27 C-11.74307373 26.39526855 -11.48614746 25.79053711 -11.22143555 25.16748047 C-10.04540093 22.40248888 -8.86647582 19.63873868 -7.6875 16.875 C-7.28337891 15.92367188 -6.87925781 14.97234375 -6.46289062 13.9921875 C-4.43840726 9.25193377 -2.37908796 4.57339238 0 0 Z " fill="#072251" transform="translate(548,369)"/>
<path d="M0 0 C2.03302325 5.87317826 -0.20009327 10.909672 -2.72265625 16.2734375 C-3.26083984 17.42714844 -3.79902344 18.58085938 -4.35351562 19.76953125 C-4.91748047 20.95933594 -5.48144531 22.14914062 -6.0625 23.375 C-6.63674313 24.59994401 -7.21031749 25.82520177 -7.78320312 27.05078125 C-9.18226007 30.03700363 -10.58803867 33.01986305 -12 36 C-12.66 36 -13.32 36 -14 36 C-15.32 38.31 -16.64 40.62 -18 43 C-18.33 42.34 -18.66 41.68 -19 41 C-18.26098633 38.94995117 -18.26098633 38.94995117 -17.01953125 36.35546875 C-16.32077881 34.87506104 -16.32077881 34.87506104 -15.60791016 33.36474609 C-15.0772998 32.25437988 -14.54668945 31.14401367 -14 30 C-13.11948645 28.11590936 -12.24404063 26.22951064 -11.36862183 24.3430481 C-9.81453158 20.99659817 -8.25014227 17.65496261 -6.6875 14.3125 C-6.03575558 12.91734186 -5.38406255 11.52215972 -4.73242188 10.12695312 C-3.15553863 6.75102587 -1.57796562 3.3754215 0 0 Z " fill="#067FE8" transform="translate(441,655)"/>
<path d="M0 0 C3.4243052 3.94175576 5.64245428 7.96088102 7.875 12.625 C8.57268144 14.05153414 9.27190926 15.47731298 9.97265625 16.90234375 C10.31441895 17.59827637 10.65618164 18.29420898 11.00830078 19.01123047 C13.66833087 24.3456975 16.49040951 29.62379275 19.6875 34.65625 C21 37 21 37 20.6875 39.3125 C20.460625 39.869375 20.23375 40.42625 20 41 C17.46908084 38.69983975 15.92630097 36.34732424 14.29296875 33.3515625 C13.79112061 32.43415283 13.28927246 31.51674316 12.7722168 30.5715332 C12.24926025 29.59917725 11.72630371 28.62682129 11.1875 27.625 C10.65358643 26.63653076 10.11967285 25.64806152 9.56958008 24.62963867 C0.7213442 8.13011449 0.7213442 8.13011449 -1 3 C-0.67 2.01 -0.34 1.02 0 0 Z " fill="#0882ED" transform="translate(590,676)"/>
<path d="M0 0 C4.06960159 1.36853859 6.58458283 3.18107528 9.6875 6.125 C12.95691885 9.15366635 16.24579066 12.0587803 19.75 14.8125 C23.9049447 18.08688342 27.93335132 21.48234645 31.9375 24.9375 C36.95671283 29.26684924 42.03347818 33.50908527 47.1796875 37.6875 C52.50950132 42.05765205 57.7499838 46.53456492 63 51 C56.59362664 51 50.99074196 44.19896644 46.37890625 40.1015625 C41.57082425 35.85402864 36.67798829 31.70364004 31.79931641 27.53759766 C30.6391774 26.54620614 29.47992905 25.55377096 28.32177734 24.56005859 C21.54872575 18.74905345 14.69570624 13.09283366 7.58007812 7.70288086 C4.56760801 5.38711006 2.08778575 3.19090659 0 0 Z " fill="#1CB5F5" transform="translate(358,416)"/>
<path d="M0 0 C1.6415049 3.2830098 0.51888624 6.42545033 0 10 C-3 11 -3 11 -4.80932617 10.37915039 C-5.46392822 10.03875732 -6.11853027 9.69836426 -6.79296875 9.34765625 C-7.8612793 8.80141602 -7.8612793 8.80141602 -8.95117188 8.24414062 C-9.68916016 7.85419922 -10.42714844 7.46425781 -11.1875 7.0625 C-11.93708984 6.67642578 -12.68667969 6.29035156 -13.45898438 5.89257812 C-15.31060689 4.93728243 -17.15592452 3.96978423 -19 3 C-12.65881233 -0.33228709 -7.04250372 -1.72469479 0 0 Z " fill="#0A8CF0" transform="translate(570,523)"/>
<path d="M0 0 C15.3313551 14.86759524 26.93320524 34.08181899 38 52.1875 C38.52263428 53.03070801 39.04526855 53.87391602 39.58374023 54.74267578 C40.05110596 55.52239746 40.51847168 56.30211914 41 57.10546875 C41.4125 57.78762451 41.825 58.46978027 42.25 59.17260742 C43 61 43 61 42 64 C41.44054687 63.01644531 40.88109375 62.03289062 40.3046875 61.01953125 C29.4114948 42.07575484 17.41048972 23.37067555 3.2109375 6.70703125 C1.23002132 4.28163388 0.35157457 3.0469796 0 0 Z " fill="#17ACF4" transform="translate(408,384)"/>
<path d="M0 0 C4.55995671 1.49436784 7.94691613 4.07917095 11.625 7.0625 C12.54696167 7.79895752 12.54696167 7.79895752 13.48754883 8.55029297 C15.33090844 10.02641425 17.16672382 11.51138177 19 13 C19.98097656 13.79535156 20.96195312 14.59070313 21.97265625 15.41015625 C23.75912589 16.86760702 25.5417954 18.32973033 27.3203125 19.796875 C29.22227142 21.36058466 31.13487703 22.91138462 33.0546875 24.453125 C34.04726563 25.25234375 35.03984375 26.0515625 36.0625 26.875 C36.96097656 27.59429687 37.85945313 28.31359375 38.78515625 29.0546875 C41 31 41 31 43 34 C40.06995147 32.64841788 37.72308453 31.09811506 35.25 29.03125 C34.5590625 28.46019531 33.868125 27.88914062 33.15625 27.30078125 C31.71875 26.10026042 30.28125 24.89973958 28.84375 23.69921875 C28.1528125 23.12816406 27.461875 22.55710937 26.75 21.96875 C26.12609375 21.44732422 25.5021875 20.92589844 24.859375 20.38867188 C22.74876382 18.72696708 22.74876382 18.72696708 19 17 C21.64 18.98 24.28 20.96 27 23 C26.34 23.66 25.68 24.32 25 25 C23.08124655 23.41914024 21.16497722 21.835423 19.25 20.25 C18.71117187 19.8065625 18.17234375 19.363125 17.6171875 18.90625 C14.59438081 16.39953226 11.72363559 13.82940784 9 11 C11.475 11.99 11.475 11.99 14 13 C10.33371118 8.97890904 6.42051222 6.19310625 1.79296875 3.33203125 C1.20128906 2.89246094 0.60960937 2.45289063 0 2 C0 1.34 0 0.68 0 0 Z " fill="#002057" transform="translate(341,397)"/>
<path d="M0 0 C19.58976496 2.65809078 43.27263 24.99334895 58 37 C57.505 37.99 57.505 37.99 57 39 C55.5459375 37.89205078 55.5459375 37.89205078 54.0625 36.76171875 C45.19549269 30.03856769 36.20454924 23.55961115 26.97900391 17.33789062 C24.98388207 15.98910359 22.99748958 14.62813181 21.01171875 13.265625 C14.22975503 8.64194235 7.52098845 4.36232425 0 1 C0 0.67 0 0.34 0 0 Z " fill="#18A9F4" transform="translate(299,377)"/>
<path d="M0 0 C3.75140716 3.12617263 7.2769667 6.25788593 10.625 9.8125 C19.80018007 19.04041099 37.07638481 31.72886297 50.57421875 32.09765625 C51.94534658 32.09103244 53.31645717 32.07914198 54.6875 32.0625 C55.38939453 32.05798828 56.09128906 32.05347656 56.81445312 32.04882812 C58.54300538 32.03706927 60.27151365 32.01913454 62 32 C61.505 32.99 61.505 32.99 61 34 C48.00791231 37.19646602 36.96741578 31.34430496 26 25 C16.18511407 18.77155229 7.74516984 10.62738593 0 2 C0 1.34 0 0.68 0 0 Z " fill="#002053" transform="translate(632,750)"/>
<path d="M0 0 C0 4.08334189 -1.56564802 5.27328509 -4.125 8.4375 C-9.50020339 15.1728739 -14.37447406 22.21761919 -19.17626953 29.37084961 C-19.74458496 30.20108643 -20.31290039 31.03132324 -20.8984375 31.88671875 C-21.65133057 33.00373169 -21.65133057 33.00373169 -22.41943359 34.14331055 C-24.12851119 36.15096194 -25.58136118 37.00514762 -28 38 C-28 26.57507161 -7.48745081 8.27703653 0 0 Z " fill="#001F54" transform="translate(394,611)"/>
<path d="M0 0 C3.74145767 0.62343558 6.91163053 1.69371981 10.375 3.23046875 C11.42961426 3.69727051 12.48422852 4.16407227 13.57080078 4.64501953 C14.70243652 5.15403809 15.83407227 5.66305664 17 6.1875 C18.17159668 6.7119873 19.34319336 7.23647461 20.55029297 7.77685547 C29.14325664 11.64173217 37.68035203 15.62478394 46.17871094 19.69326782 C47.47505424 20.3138564 48.77225569 20.93265562 50.0703125 21.5496521 C51.88600661 22.41444764 53.69703134 23.28902649 55.5078125 24.1640625 C57.06459717 24.91357178 57.06459717 24.91357178 58.65283203 25.67822266 C61 27 61 27 62 29 C57.40941111 28.38440379 53.67883959 26.49041113 49.625 24.375 C48.20266291 23.64809363 46.77946351 22.9228724 45.35546875 22.19921875 C44.63407715 21.83231934 43.91268555 21.46541992 43.16943359 21.08740234 C39.78745206 19.39222501 36.36779505 17.78215656 32.9375 16.1875 C31.77089844 15.64480469 30.60429688 15.10210938 29.40234375 14.54296875 C25.95417875 12.97921998 22.48366622 11.4828868 19 10 C15.86978806 8.65759617 12.74616304 7.30079569 9.625 5.9375 C8.80644531 5.58623047 7.98789062 5.23496094 7.14453125 4.87304688 C5.97857422 4.36161133 5.97857422 4.36161133 4.7890625 3.83984375 C4.08475098 3.53425537 3.38043945 3.22866699 2.65478516 2.91381836 C1 2 1 2 0 0 Z " fill="#1CB3F5" transform="translate(565,540)"/>
<path d="M0 0 C53.2826087 -0.48229628 53.2826087 -0.48229628 69 3 C69 3.33 69 3.66 69 4 C65.72918529 4.02902429 62.4584037 4.04680684 59.1875 4.0625 C58.25873047 4.07087891 57.32996094 4.07925781 56.37304688 4.08789062 C55.48037109 4.09111328 54.58769531 4.09433594 53.66796875 4.09765625 C52.43469849 4.10551147 52.43469849 4.10551147 51.17651367 4.11352539 C49 4 49 4 46 3 C43.47031142 2.95487735 40.96520723 2.95217205 38.4375 3 C31.26971895 3.13485947 31.26971895 3.13485947 29 2 C26.82325217 1.84530633 24.6421652 1.74997894 22.4609375 1.68359375 C21.15898437 1.64169922 19.85703125 1.59980469 18.515625 1.55664062 C17.13541955 1.51682701 15.75521117 1.47711478 14.375 1.4375 C12.98696585 1.39430593 11.59894472 1.35069135 10.2109375 1.30664062 C6.80739744 1.20028 3.40378222 1.09825286 0 1 C0 0.67 0 0.34 0 0 Z " fill="#1DBBFA" transform="translate(365,517)"/>
<path d="M0 0 C0 0.99 0 1.98 0 3 C-4.62449797 3.88355777 -9.25089675 4.75604801 -13.87939453 5.6184082 C-15.45320645 5.91323456 -17.02645932 6.2110618 -18.59912109 6.51196289 C-20.86154666 6.94429627 -23.12577225 7.36574895 -25.390625 7.78515625 C-26.09181458 7.92156021 -26.79300415 8.05796417 -27.51544189 8.19850159 C-30.94446031 8.8226369 -33.68785269 9.25133817 -37 8 C-29.9733855 5.55723978 -22.89861011 3.57156797 -15.6875 1.75 C-14.61693359 1.46898437 -13.54636719 1.18796875 -12.44335938 0.8984375 C-11.41404297 0.63804687 -10.38472656 0.37765625 -9.32421875 0.109375 C-8.39697998 -0.12813477 -7.46974121 -0.36564453 -6.5144043 -0.61035156 C-3.96023836 -1.00616172 -2.42250774 -0.82724968 0 0 Z " fill="#02265C" transform="translate(743,430)"/>
<path d="M0 0 C0.66 0 1.32 0 2 0 C1.52936273 7.5962506 -0.44085848 14.37188958 -2.81079102 21.58691406 C-3.44415998 23.52033019 -4.05971638 25.45882931 -4.67382812 27.3984375 C-6.95668125 34.44437242 -6.95668125 34.44437242 -8 37 C-8.99 37.495 -8.99 37.495 -10 38 C-10.72693904 39.97888961 -11.39816251 41.97954558 -12 44 C-13.76086956 39.86301729 -12.05757398 36.35267882 -10.625 32.375 C-10.39039063 31.694375 -10.15578125 31.01375 -9.9140625 30.3125 C-9.04506199 27.81412353 -8.18422621 25.36845242 -7 23 C-6.77532169 21.46331135 -6.59203195 19.92031946 -6.4375 18.375 C-6.35371094 17.55773437 -6.26992188 16.74046875 -6.18359375 15.8984375 C-6.12300781 15.27195312 -6.06242187 14.64546875 -6 14 C-5.01 15.485 -5.01 15.485 -4 17 C-1.90429574 11.30601106 -0.54981916 6.04801071 0 0 Z " fill="#0988EE" transform="translate(483,534)"/>
<path d="M0 0 C3.82481514 1.6629631 6.90019985 4.15847015 10.125 6.75 C11.37589973 7.74399614 12.62722306 8.73745936 13.87890625 9.73046875 C14.54422363 10.25946777 15.20954102 10.7884668 15.89501953 11.33349609 C19.59947655 14.26629864 23.33136913 17.16375913 27.0625 20.0625 C28.19751953 20.94494385 28.19751953 20.94494385 29.35546875 21.84521484 C35.88637994 26.91933873 42.4369342 31.96754319 49 37 C45.40941456 37 44.25212529 36.10368497 41.3125 34.125 C40.50425781 33.59132813 39.69601562 33.05765625 38.86328125 32.5078125 C38.24839844 32.01023437 37.63351562 31.51265625 37 31 C37 30.34 37 29.68 37 29 C35.68 28.67 34.36 28.34 33 28 C33 27.34 33 26.68 33 26 C31.99839844 25.69255859 31.99839844 25.69255859 30.9765625 25.37890625 C26.90883743 23.49451393 23.79638507 20.80391192 20.375 17.9375 C18.95442833 16.76301932 17.53385541 15.58854016 16.11328125 14.4140625 C15.41799316 13.8355957 14.72270508 13.25712891 14.00634766 12.66113281 C12.19662848 11.16279632 10.37494416 9.68191392 8.54296875 8.2109375 C7.55941406 7.41945313 6.57585937 6.62796875 5.5625 5.8125 C4.69753906 5.11769531 3.83257812 4.42289062 2.94140625 3.70703125 C1 2 1 2 0 0 Z " fill="#1BB1F4" transform="translate(423,470)"/>
<path d="M0 0 C-8.17046172 4.4139276 -16.3731193 8.73278048 -24.70361328 12.83764648 C-28.56029421 14.74816235 -32.37382654 16.72217076 -36.1640625 18.76171875 C-37.03063477 19.22658691 -37.89720703 19.69145508 -38.79003906 20.17041016 C-40.49099876 21.08643511 -42.18839118 22.00912052 -43.88183594 22.93896484 C-44.65043945 23.35227051 -45.41904297 23.76557617 -46.2109375 24.19140625 C-47.23646729 24.75130249 -47.23646729 24.75130249 -48.28271484 25.32250977 C-49.132771 25.65786743 -49.132771 25.65786743 -50 26 C-50.66 25.67 -51.32 25.34 -52 25 C-45.09781955 20.75062824 -38.07682107 16.84137916 -30.875 13.125 C-29.87887695 12.60977783 -28.88275391 12.09455566 -27.85644531 11.5637207 C-25.85213899 10.5288501 -23.84694707 9.49569268 -21.84082031 8.46435547 C-19.23972569 7.12357122 -16.64646009 5.76884114 -14.0546875 4.41015625 C-12.62018098 3.66851732 -11.18531256 2.92757777 -9.75 2.1875 C-8.77716064 1.67243896 -8.77716064 1.67243896 -7.78466797 1.14697266 C-3.34286336 -1.11428779 -3.34286336 -1.11428779 0 0 Z " fill="#1CB1F3" transform="translate(430,554)"/>
<path d="M0 0 C-3.25088996 3.90106795 -6.05420065 5.01084013 -11 6 C-13.69319201 6.1414987 -16.2994852 6.09475491 -19 6 C-19 5.01 -19 4.02 -19 3 C-19.66 2.34 -20.32 1.68 -21 1 C-16.96916602 -3.03083398 -5.23040719 -0.90526278 0 0 Z " fill="#067DEA" transform="translate(471,525)"/>
<path d="M0 0 C0.93263672 -0.00080566 1.86527344 -0.00161133 2.82617188 -0.00244141 C7.04312568 0.03231371 11.0169223 0.1132119 15.125 1.1875 C15.125 1.5175 15.125 1.8475 15.125 2.1875 C14.3 2.20731934 13.475 2.22713867 12.625 2.24755859 C-10.76057286 1.3346727 -10.76057286 1.3346727 -32.875 6.1875 C-35 5.25 -35 5.25 -36.875 4.1875 C-32.03622581 2.36530339 -27.47895545 1.58229785 -22.375 1.0625 C-21.15659424 0.93621216 -21.15659424 0.93621216 -19.91357422 0.80737305 C-13.27478084 0.18675465 -6.66571476 0.00555847 0 0 Z " fill="#12254F" transform="translate(852.875,219.8125)"/>
<path d="M0 0 C1.26909534 3.80728601 0.5062716 5.14484176 -0.80859375 8.8984375 C-1.22238281 10.09114258 -1.63617188 11.28384766 -2.0625 12.51269531 C-2.52029366 13.80032221 -2.97863797 15.08775345 -3.4375 16.375 C-3.8975143 17.68313505 -4.35714753 18.99140417 -4.81640625 20.29980469 C-7.6390145 28.30887678 -10.52401115 36.29664689 -13.5 44.25 C-13.82540771 45.12962402 -14.15081543 46.00924805 -14.48608398 46.91552734 C-14.94156616 48.10976318 -14.94156616 48.10976318 -15.40625 49.328125 C-15.79780273 50.36308105 -15.79780273 50.36308105 -16.19726562 51.41894531 C-17 53 -17 53 -19 54 C-18.40462308 50.67700005 -17.59296669 47.65758847 -16.36328125 44.515625 C-16.03602051 43.67080566 -15.70875977 42.82598633 -15.37158203 41.95556641 C-15.02208496 41.06272949 -14.67258789 40.16989258 -14.3125 39.25 C-11.66828702 32.40271687 -9.06846753 25.54673089 -6.625 18.625 C-6.38692627 17.95500977 -6.14885254 17.28501953 -5.90356445 16.59472656 C-4.44494296 12.43505157 -3.20920822 8.23744088 -2 4 C-1.37530495 2.64649406 -0.7283669 1.30065517 0 0 Z " fill="#1AAFF7" transform="translate(464,597)"/>
<path d="M0 0 C3.41604217 4.39743268 6.03971471 9.14782685 8.75 14 C9.26949219 14.90234375 9.78898437 15.8046875 10.32421875 16.734375 C10.81019531 17.60578125 11.29617188 18.4771875 11.796875 19.375 C12.24385742 20.16648437 12.69083984 20.95796875 13.15136719 21.7734375 C14 24 14 24 13 28 C11.68 25.36 10.36 22.72 9 20 C8.01 20 7.02 20 6 20 C4.98319357 17.98757061 3.98726211 15.9645868 3 13.9375 C2.443125 12.81214844 1.88625 11.68679688 1.3125 10.52734375 C-0.08753984 6.76473667 -0.2433219 3.97932691 0 0 Z " fill="#0884EB" transform="translate(461,464)"/>
<path d="M0 0 C3.39743025 1.51866698 6.01618284 3.50279002 8.875 5.875 C9.84308594 6.67679687 10.81117188 7.47859375 11.80859375 8.3046875 C14.61810915 10.66478556 17.39266702 13.06392236 20.16601562 15.46630859 C26.90067029 21.29694539 33.78739956 26.76888319 41 32 C40.01 32.33 39.02 32.66 38 33 C35.85500759 31.44609925 33.9579611 29.89104892 32 28.125 C30.82364296 27.09552366 29.64654877 26.06688909 28.46875 25.0390625 C27.88222656 24.5224707 27.29570312 24.00587891 26.69140625 23.47363281 C24.34007794 21.42504481 21.92455956 19.46104082 19.5 17.5 C15.26821318 14.04840987 11.05920225 10.57153459 6.875 7.0625 C6.30587891 6.58941406 5.73675781 6.11632812 5.15039062 5.62890625 C1.11558949 2.23117898 1.11558949 2.23117898 0 0 Z " fill="#1CB1F4" transform="translate(415,455)"/>
<path d="M0 0 C0.66 0.33 1.32 0.66 2 1 C-4.96641284 7.55411494 -12.16735642 13.61613396 -19.73828125 19.45703125 C-22.89304621 21.89416036 -25.95163939 24.43126042 -29 27 C-29.66 26.67 -30.32 26.34 -31 26 C-30 23 -30 23 -27.0625 21.5 C-26.051875 21.005 -25.04125 20.51 -24 20 C-23.34 19.01 -22.68 18.02 -22 17 C-20.8553125 16.319375 -20.8553125 16.319375 -19.6875 15.625 C-16.86587672 14.06522936 -16.86587672 14.06522936 -14.5 11.5 C-12.11870531 9.11870531 -9.86950954 7.70619486 -7 6 C-6.34 5.01 -5.68 4.02 -5 3 C-4.34 3.33 -3.68 3.66 -3 4 C-3 3.01 -3 2.02 -3 1 C-2.01 0.67 -1.02 0.34 0 0 Z " fill="#1EB6F4" transform="translate(622,442)"/>
<path d="M0 0 C4.51478398 0.53115106 7.34666857 2.36620292 11 5 C10.67 5.99 10.34 6.98 10 8 C-5.74487472 8.18451025 -5.74487472 8.18451025 -13 7 C-13 6.67 -13 6.34 -13 6 C-11.86111328 6.05220703 -11.86111328 6.05220703 -10.69921875 6.10546875 C-9.70535156 6.13253906 -8.71148437 6.15960937 -7.6875 6.1875 C-6.70136719 6.22230469 -5.71523438 6.25710938 -4.69921875 6.29296875 C-1.95425611 6.24278108 -1.95425611 6.24278108 -0.14453125 4.48828125 C0.23316406 3.99714844 0.61085938 3.50601562 1 3 C0.67 2.01 0.34 1.02 0 0 Z " fill="#0981EA" transform="translate(469,507)"/>
<path d="M0 0 C0.99 0 1.98 0 3 0 C1.33846988 5.85659906 -0.47041916 11.4590134 -3 17 C-3.66 17 -4.32 17 -5 17 C-6.20220203 13.46905698 -5.79532349 10.87101018 -5.0625 7.25 C-4.86785156 6.26515625 -4.67320312 5.2803125 -4.47265625 4.265625 C-4.31667969 3.51796875 -4.16070313 2.7703125 -4 2 C-3.67 2.66 -3.34 3.32 -3 4 C-2.34 4 -1.68 4 -1 4 C-0.67 2.68 -0.34 1.36 0 0 Z " fill="#04285B" transform="translate(532,403)"/>
<path d="M0 0 C11.88 0 23.76 0 36 0 C36 0.33 36 0.66 36 1 C31.62563493 1.34201731 27.25043317 1.67195334 22.875 2 C21.04775391 2.14308594 21.04775391 2.14308594 19.18359375 2.2890625 C10.76076835 2.91297549 2.4437719 3.11689129 -6 3 C-6 2.67 -6 2.34 -6 2 C-4.02 2 -2.04 2 0 2 C0 1.34 0 0.68 0 0 Z " fill="#1BB3F9" transform="translate(667,497)"/>
<path d="M0 0 C0.99 0.33 1.98 0.66 3 1 C0.89304781 3.28709293 -1.08151367 4.72927117 -3.8515625 6.12890625 C-4.61299561 6.51965332 -5.37442871 6.91040039 -6.15893555 7.31298828 C-7.37963745 7.93149658 -7.37963745 7.93149658 -8.625 8.5625 C-17.95964157 13.37346529 -27.00426563 18.58643386 -36 24 C-36.33 23.34 -36.66 22.68 -37 22 C-34.94921875 20.828125 -34.94921875 20.828125 -32.8984375 19.65625 C-32.0216333 19.15512695 -31.1448291 18.65400391 -30.24145508 18.13769531 C-28.32494581 17.04273371 -26.40811437 15.94833581 -24.4909668 14.85449219 C-20.172614 12.38977712 -15.85643527 9.92221982 -11.55859375 7.421875 C-10.59590576 6.8640332 -10.59590576 6.8640332 -9.61376953 6.29492188 C-7.91400733 5.30888471 -6.21668952 4.3186373 -4.51953125 3.328125 C-2 2 -2 2 0 2 C0 1.34 0 0.68 0 0 Z " fill="#1EB2F3" transform="translate(409,552)"/>
<path d="M0 0 C3.11550907 1.55775453 3.38594759 4.18392088 4.625 7.375 C7.47564537 14.3816428 11.30191812 20.06214651 16 26 C17.17039938 27.55970595 18.33746845 29.12192095 19.5 30.6875 C20.33248141 31.79230911 21.16545117 32.89675174 22 34 C21.01 34.495 21.01 34.495 20 35 C0 10.3024911 0 10.3024911 0 0 Z " fill="#002358" transform="translate(139,267)"/>
<path d="M0 0 C3.30350442 1.44401367 5.50037268 3.24316786 8.046875 5.78125 C9.18600342 6.91457764 9.18600342 6.91457764 10.34814453 8.07080078 C11.14075684 8.87243652 11.93336914 9.67407227 12.75 10.5 C13.55679199 11.31065918 14.36358398 12.12131836 15.19482422 12.95654297 C20.52536357 18.36494777 25.5615532 23.82342018 30 30 C29.67 30.66 29.34 31.32 29 32 C27.47816445 30.33424841 25.9575915 28.66734329 24.4375 27 C23.74696533 26.2428772 23.74696533 26.2428772 23.04248047 25.47045898 C20.52556565 22.7034351 18.05069599 19.90953276 15.625 17.0625 C11.9431984 12.80403068 7.93350292 8.88058813 3.91064453 4.94750977 C2.58993282 3.64890114 1.29261653 2.3265769 0 1 C0 0.67 0 0.34 0 0 Z " fill="#001D4F" transform="translate(748,654)"/>
<path d="M0 0 C0.66 0.33 1.32 0.66 2 1 C1.67 1.66 1.34 2.32 1 3 C0.64830932 4.32860925 0.31229724 5.66158328 0 7 C-0.99 7 -1.98 7 -3 7 C-3.33 7.99 -3.66 8.98 -4 10 C-4.66 10 -5.32 10 -6 10 C-6.28875 10.721875 -6.5775 11.44375 -6.875 12.1875 C-7.24625 13.115625 -7.6175 14.04375 -8 15 C-8.28875 15.886875 -8.5775 16.77375 -8.875 17.6875 C-10.1956833 20.4022379 -11.21692523 20.97953925 -14 22 C-13.45530999 18.30411809 -12.58772889 16.00138811 -10.3125 13.046875 C-9.77882813 12.345625 -9.24515625 11.644375 -8.6953125 10.921875 C-7.85613281 9.84679687 -7.85613281 9.84679687 -7 8.75 C-6.44054687 8.0178125 -5.88109375 7.285625 -5.3046875 6.53125 C-1.27455357 1.27455357 -1.27455357 1.27455357 0 0 Z " fill="#17A3F1" transform="translate(391,617)"/>
<path d="M0 0 C0.66 0 1.32 0 2 0 C2 0.66 2 1.32 2 2 C2.66 2 3.32 2 4 2 C5.77091917 4.04639548 7.42552771 6.09995518 9.0625 8.25 C9.5469458 8.87664551 10.0313916 9.50329102 10.53051758 10.14892578 C15.08107306 16.05311338 19.55910599 22.01301696 24 28 C23.67 28.66 23.34 29.32 23 30 C22.65332275 29.57291748 22.30664551 29.14583496 21.94946289 28.70581055 C20.91078761 27.4263975 19.87195506 26.14711212 18.83300781 24.86791992 C17.64824975 23.4088639 16.46400862 21.94938797 15.28027344 20.48950195 C12.59233828 17.17718949 9.9005957 13.86934192 7.16796875 10.59375 C6.37003906 9.6346875 5.57210938 8.675625 4.75 7.6875 C4.04359375 6.84574219 3.3371875 6.00398438 2.609375 5.13671875 C1 3 1 3 0 0 Z " fill="#002155" transform="translate(391,361)"/>
<path d="M0 0 C3.22271925 2.71543937 4.86637499 6.25333072 6.75 9.9375 C9.85035491 15.90356487 13.12961366 21.68461083 16.65234375 27.4140625 C17.99488511 29.99018534 18.59194577 32.13845511 19 35 C15.51004782 31.87867763 13.41788325 28.46445925 11.328125 24.3359375 C11.00084412 23.70265533 10.67356323 23.06937317 10.33636475 22.41690063 C9.6504608 21.08578892 8.96824685 19.75276996 8.28955078 18.41796875 C7.2475858 16.37025552 6.19313848 14.3293497 5.13671875 12.2890625 C4.47061326 10.99256789 3.80522315 9.69570544 3.140625 8.3984375 C2.82506653 7.78696869 2.50950806 7.17549988 2.18438721 6.54550171 C0 2.23191488 0 2.23191488 0 0 Z " fill="#002256" transform="translate(466,471)"/>
<path d="M0 0 C0.99 0.66 1.98 1.32 3 2 C5.27912938 2.45394552 5.27912938 2.45394552 7.6875 2.625 C8.49574219 2.69976563 9.30398438 2.77453125 10.13671875 2.8515625 C10.75160156 2.90054688 11.36648438 2.94953125 12 3 C12 3.33 12 3.66 12 4 C4.64206267 4.91160286 -2.58982977 5.11459026 -10 5 C-10 4.34 -10 3.68 -10 3 C-6.83294852 -0.16705148 -4.38018296 -0.46597691 0 0 Z " fill="#087CE6" transform="translate(551,510)"/>
<path d="M0 0 C0.66 0.33 1.32 0.66 2 1 C-3.33333333 3.66666667 -8.66666667 6.33333333 -14 9 C-14.67836914 9.39074707 -15.35673828 9.78149414 -16.05566406 10.18408203 C-18 11 -18 11 -21 10 C-17.44039972 4.66059958 -10.5740965 2.54191505 -4.4375 1.25 C-3.2309375 1.12625 -3.2309375 1.12625 -2 1 C-1.34 0.67 -0.68 0.34 0 0 Z " fill="#13A2F5" transform="translate(451,533)"/>
<path d="M0 0 C0.33 0.66 0.66 1.32 1 2 C-0.32 2 -1.64 2 -3 2 C-3.33 2.99 -3.66 3.98 -4 5 C-6.8125 5.6875 -6.8125 5.6875 -10 6 C-11.875 4.5625 -11.875 4.5625 -13 3 C-12.34 2.67 -11.68 2.34 -11 2 C-11.66 1.34 -12.32 0.68 -13 0 C-8.38411065 -1.013244 -4.62927172 -0.99847037 0 0 Z " fill="#0479E6" transform="translate(570,523)"/>
<path d="M0 0 C3.56917061 1.5414201 6.08217769 3.69475459 8.9375 6.3125 C9.81535156 7.11558594 10.69320313 7.91867187 11.59765625 8.74609375 C13.39115024 10.42877022 15.15285174 12.12066206 16.875 13.875 C19.96931764 16.96931764 23.0350234 19.15911801 27 21 C17.83323996 20.80902583 13.12447088 14.12447088 7 8 C5.13383621 6.42395411 3.25532069 4.86730606 1.35546875 3.33203125 C0.90816406 2.89246094 0.46085937 2.45289063 0 2 C0 1.34 0 0.68 0 0 Z " fill="#002154" transform="translate(309,763)"/>
<path d="M0 0 C10.30228281 2.44001435 20.92405815 11.47138437 27 20 C26.67 20.66 26.34 21.32 26 22 C25.21238281 21.154375 24.42476563 20.30875 23.61328125 19.4375 C17.04272024 12.54252962 10.69624006 7.07149144 2.38671875 2.390625 C1.59910156 1.93171875 0.81148438 1.4728125 0 1 C0 0.67 0 0.34 0 0 Z " fill="#0D1A44" transform="translate(286,772)"/>
<path d="M0 0 C0 0.33 0 0.66 0 1 C-10.39113779 2.30618118 -20.51074452 3.33358056 -31 3 C-21.30632847 -2.26926641 -10.56351419 -0.98080307 0 0 Z " fill="#1DB5F6" transform="translate(655,500)"/>
<path d="M0 0 C7.59 0 15.18 0 23 0 C23 0.33 23 0.66 23 1 C21.87980469 1.13277344 20.75960937 1.26554687 19.60546875 1.40234375 C18.13279271 1.58056569 16.66013753 1.75896011 15.1875 1.9375 C14.44951172 2.02451172 13.71152344 2.11152344 12.95117188 2.20117188 C6.89595445 2.77089217 6.89595445 2.77089217 2 6 C1.34 5.67 0.68 5.34 0 5 C0 3.35 0 1.7 0 0 Z " fill="#0B85EA" transform="translate(197,423)"/>
<path d="M0 0 C1.8125 0.1875 1.8125 0.1875 4 1 C5.04892238 2.63631892 6.04906703 4.30485863 7 6 C10.52155964 8.34770643 12.50771843 8.37669614 16.6875 8.625 C17.86699219 8.69976563 19.04648437 8.77453125 20.26171875 8.8515625 C21.61716797 8.92503906 21.61716797 8.92503906 23 9 C22.67 9.66 22.34 10.32 22 11 C15.34598784 11.70931094 10.31789674 11.91456624 4.8125 7.75 C1.95124349 5.33726478 0.55438724 3.74004524 0 0 Z " fill="#0B87E7" transform="translate(322,772)"/>
<path d="M0 0 C-3.68429538 2.18398953 -7.59327866 2.86782771 -11.75 3.625 C-12.42804687 3.7590625 -13.10609375 3.893125 -13.8046875 4.03125 C-18.60449545 4.9255108 -23.11896208 5.12038434 -28 5 C-24.86501708 3.14223235 -22.62528568 2.79859524 -19 3 C-19 2.34 -19 1.68 -19 1 C-12.62694402 0.25492456 -6.41688675 -0.10349817 0 0 Z " fill="#1AB1F5" transform="translate(599,506)"/>
<path d="M0 0 C0 4.15242757 -2.21390731 6.2593258 -4.6875 9.375 C-5.34008789 10.22191406 -5.34008789 10.22191406 -6.00585938 11.0859375 C-8.79032775 14.65005701 -11.74111548 17.86442462 -15 21 C-14.73957479 15.4008579 -11.07209663 12.18613195 -7.5 8.25 C-6.89285156 7.56550781 -6.28570312 6.88101563 -5.66015625 6.17578125 C-1.52594866 1.52594866 -1.52594866 1.52594866 0 0 Z " fill="#01194A" transform="translate(394,611)"/>
<path d="M0 0 C5.28 0 10.56 0 16 0 C16 3.96 16 7.92 16 12 C15.01 12 14.02 12 13 12 C13 8.7 13 5.4 13 2 C8.71 1.67 4.42 1.34 0 1 C0 0.67 0 0.34 0 0 Z " fill="#0B87EB" transform="translate(810,423)"/>
<path d="M0 0 C0.66 0.33 1.32 0.66 2 1 C1.071875 1.721875 0.14375 2.44375 -0.8125 3.1875 C-3.58673115 5.50263852 -5.43394082 7.69387506 -7 11 C-7 11.99 -7 12.98 -7 14 C-9.50357861 13.1654738 -11.66785852 12.20628008 -14 11 C-12.23055495 9.53998252 -10.45939429 8.08204407 -8.6875 6.625 C-7.70136719 5.81289063 -6.71523438 5.00078125 -5.69921875 4.1640625 C-3 2 -3 2 0 0 Z " fill="#15A7F6" transform="translate(563,497)"/>
<path d="M0 0 C2.93230193 1.32120828 4.98664899 2.74638197 7.234375 5.0390625 C8.09482422 5.90917969 8.09482422 5.90917969 8.97265625 6.796875 C9.55917969 7.40015625 10.14570313 8.0034375 10.75 8.625 C11.35199219 9.23601562 11.95398438 9.84703125 12.57421875 10.4765625 C14.05405305 11.97988624 15.52764676 13.48934856 17 15 C16.34 15.66 15.68 16.32 15 17 C14.28457031 16.28199219 13.56914062 15.56398438 12.83203125 14.82421875 C11.00655192 13.00377522 9.17128845 11.19306481 7.32421875 9.39453125 C6.45410156 8.54246094 5.58398438 7.69039063 4.6875 6.8125 C3.80449219 5.95269531 2.92148437 5.09289062 2.01171875 4.20703125 C0 2 0 2 0 0 Z " fill="#1A315B" transform="translate(374,316)"/>
<path d="M0 0 C4.19386901 3.08105539 7.23757803 6.47281066 10.375 10.5625 C10.83777344 11.13935547 11.30054688 11.71621094 11.77734375 12.31054688 C13.0859375 14.00390625 13.0859375 14.00390625 15 17 C14.67 17.99 14.34 18.98 14 20 C10.12465455 15.20007975 6.25889053 10.39195323 2.5 5.5 C2.0153125 4.8709375 1.530625 4.241875 1.03125 3.59375 C0 2 0 2 0 0 Z " fill="#02194A" transform="translate(630,613)"/>
<path d="M0 0 C0.66 0.33 1.32 0.66 2 1 C-1.24299396 4.50913632 -4.32500034 7.83599349 -8.5625 10.125 C-12.19647639 12.10716894 -14.90335005 14.28099029 -18 17 C-18 16.01 -18 15.02 -18 14 C-16.34765625 12.37426758 -16.34765625 12.37426758 -14.0625 10.64453125 C-13.25039063 10.02255859 -12.43828125 9.40058594 -11.6015625 8.75976562 C-10.31378906 7.79586914 -10.31378906 7.79586914 -9 6.8125 C-8.14148438 6.15830078 -7.28296875 5.50410156 -6.3984375 4.83007812 C-4.27186878 3.21152304 -2.13901511 1.60204899 0 0 Z " fill="#1BB7F8" transform="translate(585,480)"/>
<path d="M0 0 C0.99 0 1.98 0 3 0 C5.60018816 3.90028225 5.15085514 7.47434569 5 12 C3.68 12 2.36 12 1 12 C0.855625 10.9275 0.71125 9.855 0.5625 8.75 C0.10012053 5.20640191 0.10012053 5.20640191 -0.625 2.625 C-0.74875 2.08875 -0.8725 1.5525 -1 1 C-0.67 0.67 -0.34 0.34 0 0 Z " fill="#033065" transform="translate(490,399)"/>
<path d="M0 0 C0.66 0.33 1.32 0.66 2 1 C0.75457942 2.75326198 -0.49654053 4.50247622 -1.75 6.25 C-2.44609375 7.22453125 -3.1421875 8.1990625 -3.859375 9.203125 C-5.76452299 11.69233296 -7.72684621 13.84971939 -10 16 C-10.66 15.34 -11.32 14.68 -12 14 C-8.04 9.38 -4.08 4.76 0 0 Z " fill="#14A6F7" transform="translate(629,366)"/>
<path d="M0 0 C0.33 0.99 0.66 1.98 1 3 C-4.07476794 4.26305335 -8.72796354 5.27036084 -14 5 C-13.67 4.01 -13.34 3.02 -13 2 C-8.60470084 0.01165038 -4.77962147 -0.19118486 0 0 Z " fill="#001D4F" transform="translate(755,427)"/>
<path d="M0 0 C0.66 0.33 1.32 0.66 2 1 C-3.48519371 5.9172445 -9.1397568 10.53699071 -15 15 C-15.66 14.67 -16.32 14.34 -17 14 C-16.67 13.01 -16.34 12.02 -16 11 C-15.34 11 -14.68 11 -14 11 C-14 10.34 -14 9.68 -14 9 C-13.27425781 8.74476563 -12.54851563 8.48953125 -11.80078125 8.2265625 C-8.8447016 6.93198926 -6.69435334 5.39544896 -4.1875 3.375 C-3.39730469 2.74335938 -2.60710938 2.11171875 -1.79296875 1.4609375 C-1.20128906 0.97882813 -0.60960937 0.49671875 0 0 Z " fill="#1DB1F4" transform="translate(665,407)"/>
<path d="M0 0 C0.33 0.66 0.66 1.32 1 2 C-3.56887389 5.68756827 -7.35509363 8.21015164 -13 10 C-13.33 10.99 -13.66 11.98 -14 13 C-15.32 12.67 -16.64 12.34 -18 12 C-12.16594374 7.65346984 -6.4266106 3.42752566 0 0 Z " fill="#061C4A" transform="translate(717,262)"/>
<path d="M0 0 C0.66 0.33 1.32 0.66 2 1 C0.37660195 2.70884005 -1.29319053 4.37446717 -3 6 C-3.66 6 -4.32 6 -5 6 C-5 5.34 -5 4.68 -5 4 C-5.53109375 4.48210938 -6.0621875 4.96421875 -6.609375 5.4609375 C-7.66898437 6.40839844 -7.66898437 6.40839844 -8.75 7.375 C-9.44609375 8.00148438 -10.1421875 8.62796875 -10.859375 9.2734375 C-12.84508688 10.87505183 -14.67954093 11.96520068 -17 13 C-17 12.34 -17 11.68 -17 11 C-15.35546875 9.37890625 -15.35546875 9.37890625 -13.1875 7.5625 C-10.17536735 5.02660668 -10.17536735 5.02660668 -7.36328125 2.27734375 C-6 1 -6 1 -4 1 C-4 1.66 -4 2.32 -4 3 C-2.68 2.01 -1.36 1.02 0 0 Z " fill="#001C4E" transform="translate(295,636)"/>
<path d="M0 0 C-1.98 1.65 -3.96 3.3 -6 5 C-6 4.34 -6 3.68 -6 3 C-6.60328125 3.3609375 -7.2065625 3.721875 -7.828125 4.09375 C-9.02695312 4.78984375 -9.02695312 4.78984375 -10.25 5.5 C-11.43335938 6.19609375 -11.43335938 6.19609375 -12.640625 6.90625 C-15 8 -15 8 -19 8 C-19 7.34 -19 6.68 -19 6 C-16.40074504 4.80057395 -13.79654493 3.61527179 -11.1875 2.4375 C-10.08051758 1.92413086 -10.08051758 1.92413086 -8.95117188 1.40039062 C-8.23896484 1.08134766 -7.52675781 0.76230469 -6.79296875 0.43359375 C-6.1383667 0.13509521 -5.48376465 -0.16340332 -4.80932617 -0.47094727 C-3 -1 -3 -1 0 0 Z " fill="#17AAF3" transform="translate(450,545)"/>
<path d="M0 0 C0.66 0.33 1.32 0.66 2 1 C0.61440744 5.15677769 -2.08754833 7.01292817 -5.9375 9 C-6.9584375 9.495 -6.9584375 9.495 -8 10 C-10.01182457 11.31542376 -12.01399663 12.6459068 -14 14 C-12.44198995 9.77956771 -9.28120091 7.46863832 -5.875 4.75 C-5.31167969 4.29109375 -4.74835937 3.8321875 -4.16796875 3.359375 C-2.78377401 2.23325047 -1.39256589 1.11575615 0 0 Z " fill="#19B0F8" transform="translate(634,440)"/>
<path d="M0 0 C0.33 0.66 0.66 1.32 1 2 C0.34 2 -0.32 2 -1 2 C-1 2.99 -1 3.98 -1 5 C-0.34 5.33 0.32 5.66 1 6 C-3.39453125 10.00390625 -3.39453125 10.00390625 -5 11 C-5.99 10.67 -6.98 10.34 -8 10 C-6.68 8.68 -5.36 7.36 -4 6 C-5.65 6.66 -7.3 7.32 -9 8 C-7.82255415 4.46766245 -7.04394359 4.13691925 -3.9375 2.3125 C-3.20402344 1.87550781 -2.47054688 1.43851563 -1.71484375 0.98828125 C-1.14894531 0.66214844 -0.58304687 0.33601562 0 0 Z " fill="#002157" transform="translate(347,592)"/>
<path d="M0 0 C4.16943681 2.82926069 7.42405344 5.84020042 8.75 10.8125 C8.8325 11.534375 8.915 12.25625 9 13 C8.01 13 7.02 13 6 13 C4.99491199 11.21118264 3.99607264 9.41885304 3 7.625 C2.1646875 6.12839844 2.1646875 6.12839844 1.3125 4.6015625 C0 2 0 2 0 0 Z " fill="#0988EF" transform="translate(602,703)"/>
<path d="M0 0 C0.99 0.66 1.98 1.32 3 2 C-0.3 5.3 -3.6 8.6 -7 12 C-7.66 11.01 -8.32 10.02 -9 9 C-6.03 6.03 -3.06 3.06 0 0 Z " fill="#0B89E5" transform="translate(268,663)"/>
<path d="M0 0 C3.8943157 3.36759007 5.73062609 7.02991256 7.8125 11.625 C8.29879883 12.6459375 8.29879883 12.6459375 8.79492188 13.6875 C9.59828119 15.42839856 10.30709558 17.21226472 11 19 C10.67 19.66 10.34 20.32 10 21 C0 5.85714286 0 5.85714286 0 0 Z " fill="#0276E6" transform="translate(595,686)"/>
<path d="M0 0 C4.32504836 1.65863505 7.09418825 4.871041 10.25 8.125 C11.08144531 8.96998047 11.08144531 8.96998047 11.9296875 9.83203125 C13.29104485 11.21686028 14.64614859 12.60783204 16 14 C15.34 14.66 14.68 15.32 14 16 C13.67 15.01 13.34 14.02 13 13 C12.34 13 11.68 13 11 13 C10.443125 12.29875 9.88625 11.5975 9.3125 10.875 C6.9133363 7.89225593 4.3697362 5.70405467 1.390625 3.33203125 C0.93171875 2.89246094 0.4728125 2.45289063 0 2 C0 1.34 0 0.68 0 0 Z " fill="#1299E8" transform="translate(359,330)"/>
<path d="M0 0 C1.86785156 0.01353516 1.86785156 0.01353516 3.7734375 0.02734375 C5.18496094 0.04474609 5.18496094 0.04474609 6.625 0.0625 C6.625 0.3925 6.625 0.7225 6.625 1.0625 C5.91472656 1.11148438 5.20445312 1.16046875 4.47265625 1.2109375 C3.09400391 1.32308594 3.09400391 1.32308594 1.6875 1.4375 C0.77097656 1.50710938 -0.14554688 1.57671875 -1.08984375 1.6484375 C-2.22099609 1.85339844 -2.22099609 1.85339844 -3.375 2.0625 C-3.705 2.7225 -4.035 3.3825 -4.375 4.0625 C-8.665 3.7325 -12.955 3.4025 -17.375 3.0625 C-11.52470982 0.13735491 -6.48021889 -0.06113414 0 0 Z " fill="#1BB0F6" transform="translate(582.375,519.9375)"/>
<path d="M0 0 C0.66 0.33 1.32 0.66 2 1 C-0.22600557 4.33900835 -1.59467702 4.97129695 -5 7 C-8.04150003 9.28112502 -11.02439312 11.63377666 -14 14 C-14 13.01 -14 12.02 -14 11 C-12.08150435 9.16364178 -10.19623949 7.51966843 -8.125 5.875 C-7.56941406 5.41996094 -7.01382813 4.96492188 -6.44140625 4.49609375 C-2.3542471 1.17712355 -2.3542471 1.17712355 0 0 Z " fill="#19AFF6" transform="translate(674,408)"/>
<path d="M0 0 C3.92835026 0.43648336 6.90309967 1.52247974 10 4 C10.3125 6.6875 10.3125 6.6875 10 9 C5.93773148 6.96886574 2.52267814 3.83771294 -1 1 C-0.67 0.67 -0.34 0.34 0 0 Z " fill="#012F64" transform="translate(623,562)"/>
<path d="M0 0 C1.32 0.33 2.64 0.66 4 1 C4 1.99 4 2.98 4 4 C4.56203125 4.25523437 5.1240625 4.51046875 5.703125 4.7734375 C8.29386482 6.15692781 10.45107845 7.79938583 12.75 9.625 C13.54921875 10.25664062 14.3484375 10.88828125 15.171875 11.5390625 C15.77515625 12.02117187 16.3784375 12.50328125 17 13 C16.01 13.495 16.01 13.495 15 14 C13.24673802 12.75457942 11.49752378 11.50345947 9.75 10.25 C8.77546875 9.55390625 7.8009375 8.8578125 6.796875 8.140625 C4.29446127 6.2253698 2.08353172 4.36133595 0 2 C0 1.34 0 0.68 0 0 Z " fill="#0F234E" transform="translate(192,484)"/>
<path d="M0 0 C0.33 0 0.66 0 1 0 C1.37067107 8.71077013 -0.2986469 15.6345468 -5 23 C-6.22742877 19.31771369 -5.6083322 18.39946715 -4.1875 14.875 C-2.28906759 9.94170331 -1.01940094 5.18195478 0 0 Z " fill="#002255" transform="translate(825,445)"/>
<path d="M0 0 C3.56917061 1.5414201 6.08217769 3.69475459 8.9375 6.3125 C10.24654297 7.51132812 10.24654297 7.51132812 11.58203125 8.734375 C14.11347266 11.10632333 16.58785101 13.50744604 19 16 C16 16 16 16 13.984375 14.2421875 C13.24703125 13.46101563 12.5096875 12.67984375 11.75 11.875 C8.91191592 8.93008133 6.07731001 6.12183728 2.9375 3.5 C1.968125 2.675 0.99875 1.85 0 1 C0 0.67 0 0.34 0 0 Z " fill="#002258" transform="translate(341,312)"/>
<path d="M0 0 C2.475 0.99 2.475 0.99 5 2 C3.02 4.31 1.04 6.62 -1 9 C-1.99 8.67 -2.98 8.34 -4 8 C-2.66666667 5.33333333 -1.33333333 2.66666667 0 0 Z " fill="#012E65" transform="translate(273,652)"/>
<path d="M0 0 C-2.21689838 4.43379675 -4.77728219 6.46636932 -9 9 C-8.67 7.35 -8.34 5.7 -8 4 C-7.01 3.67 -6.02 3.34 -5 3 C-5.33 2.01 -5.66 1.02 -6 0 C-2.25 -1.125 -2.25 -1.125 0 0 Z " fill="#012D65" transform="translate(646,429)"/>
<path d="M0 0 C1.18239258 0.00676758 1.18239258 0.00676758 2.38867188 0.01367188 C4.32164761 0.02538688 6.25458393 0.04332002 8.1875 0.0625 C8.1875 0.3925 8.1875 0.7225 8.1875 1.0625 C6.516875 1.2790625 6.516875 1.2790625 4.8125 1.5 C1.36607953 1.84622035 1.36607953 1.84622035 -0.8125 3.0625 C-3.02388855 2.97438555 -5.23292185 2.8195216 -7.4375 2.625 C-8.62601563 2.52316406 -9.81453125 2.42132812 -11.0390625 2.31640625 C-11.95429687 2.23261719 -12.86953125 2.14882813 -13.8125 2.0625 C-13.8125 1.7325 -13.8125 1.4025 -13.8125 1.0625 C-9.18790756 -0.11450048 -4.73383538 -0.05158412 0 0 Z " fill="#1BB8F8" transform="translate(603.8125,517.9375)"/>
<path d="M0 0 C1.09054687 0.02320313 2.18109375 0.04640625 3.3046875 0.0703125 C4.40039062 0.08835937 5.49609375 0.10640625 6.625 0.125 C7.46804688 0.14820313 8.31109375 0.17140625 9.1796875 0.1953125 C9.1796875 1.1853125 9.1796875 2.1753125 9.1796875 3.1953125 C7.59839721 3.41862449 6.01447661 3.62335894 4.4296875 3.8203125 C3.10710938 3.99433594 3.10710938 3.99433594 1.7578125 4.171875 C-1.04891128 4.19739067 -2.45416116 3.64375094 -4.8203125 2.1953125 C-2.8203125 0.1953125 -2.8203125 0.1953125 0 0 Z " fill="#012A60" transform="translate(756.8203125,425.8046875)"/>
<path d="M0 0 C0 0.33 0 0.66 0 1 C-1.13179687 1.13277344 -2.26359375 1.26554688 -3.4296875 1.40234375 C-4.91148179 1.5805342 -6.39325136 1.75893029 -7.875 1.9375 C-8.99455078 2.06801758 -8.99455078 2.06801758 -10.13671875 2.20117188 C-14.1953231 2.63326063 -14.1953231 2.63326063 -18 4 C-20.125 3.0625 -20.125 3.0625 -22 2 C-14.93286896 -0.78965699 -7.43733296 -1.7614736 0 0 Z " fill="#081A4A" transform="translate(838,222)"/>
<path d="M0 0 C-1.65 1.98 -3.3 3.96 -5 6 C-6.32 5.34 -7.64 4.68 -9 4 C-8.25 2.0625 -8.25 2.0625 -7 0 C-4.04680182 -1.23843794 -3.12561472 -1.04187157 0 0 Z " fill="#0A88ED" transform="translate(246,680)"/>
<path d="M0 0 C0 0.66 0 1.32 0 2 C-0.99 2.66 -1.98 3.32 -3 4 C-4.20450304 6.55183404 -4.20450304 6.55183404 -5 9 C-6.66666667 9 -8.33333333 9 -10 9 C-8.5124715 4.98367305 -4.56813239 0 0 0 Z " fill="#001E50" transform="translate(641,430)"/>
<path d="M0 0 C5.42857143 -0.36190476 5.42857143 -0.36190476 7.875 1.1875 C9.34781139 3.56036279 9.22223194 5.25913944 9 8 C8.01 8 7.02 8 6 8 C6 6.02 6 4.04 6 2 C3.69 2 1.38 2 -1 2 C-0.67 1.34 -0.34 0.68 0 0 Z " fill="#0D214C" transform="translate(607,284)"/>
<path d="M0 0 C5.24972347 4.10037573 9.20962911 8.52964787 13 14 C10.00861675 13.66388952 9.0265254 13.02746044 6.89453125 10.8203125 C6.20746094 9.93085937 5.52039063 9.04140625 4.8125 8.125 C4.11769531 7.24070312 3.42289063 6.35640625 2.70703125 5.4453125 C1 3 1 3 0 0 Z " fill="#002155" transform="translate(772,672)"/>
<path d="M0 0 C3.47064731 1.5532967 6.22929462 3.6229487 9.1875 6 C10.50814453 7.051875 10.50814453 7.051875 11.85546875 8.125 C14 10 14 10 15 12 C10.26872454 10.66932878 7.30327896 7.80856057 3.76953125 4.55859375 C2.07185494 2.92943284 2.07185494 2.92943284 0 2 C0 1.34 0 0.68 0 0 Z " fill="#18A7F2" transform="translate(705,619)"/>
<path d="M0 0 C0.66 0.33 1.32 0.66 2 1 C-1.70090521 4.9252025 -5.54959656 7.94580156 -10 11 C-10.66 10.67 -11.32 10.34 -12 10 C-10.75160501 8.894019 -9.50120766 7.79029799 -8.25 6.6875 C-7.55390625 6.07261719 -6.8578125 5.45773437 -6.140625 4.82421875 C-4.14885494 3.12685266 -2.11101085 1.54522191 0 0 Z " fill="#16A5F5" transform="translate(322,616)"/>
<path d="M0 0 C-0.33 0.66 -0.66 1.32 -1 2 C-7.7685324 2.10152799 -14.30324864 2.03026944 -21 1 C-21 0.67 -21 0.34 -21 0 C-20.09636719 0.01160156 -19.19273437 0.02320313 -18.26171875 0.03515625 C-16.49248047 0.04869141 -16.49248047 0.04869141 -14.6875 0.0625 C-13.51574219 0.07410156 -12.34398437 0.08570313 -11.13671875 0.09765625 C-0.9077527 -0.22080471 -0.9077527 -0.22080471 0 0 Z " fill="#0778E3" transform="translate(477,513)"/>
<path d="M0 0 C0.66 1.32 1.32 2.64 2 4 C0.02 5.32 -1.96 6.64 -4 8 C-4.99 7.34 -5.98 6.68 -7 6 C-4.69 4.02 -2.38 2.04 0 0 Z " fill="#012E64" transform="translate(319,614)"/>
<path d="M0 0 C0.66 0.33 1.32 0.66 2 1 C0.58510266 2.27280294 -0.83199666 3.5431583 -2.25 4.8125 C-3.03890625 5.52019531 -3.8278125 6.22789062 -4.640625 6.95703125 C-6.7016833 8.74168935 -8.79605523 10.39759062 -11 12 C-11.66 11.67 -12.32 11.34 -13 11 C-11.39801112 9.53927468 -9.79332884 8.08150284 -8.1875 6.625 C-7.29417969 5.81289063 -6.40085937 5.00078125 -5.48046875 4.1640625 C-3 2 -3 2 0 0 Z " fill="#1DB8F9" transform="translate(650,427)"/>
<path d="M0 0 C0.66 0.33 1.32 0.66 2 1 C1.484375 1.94875 0.96875 2.8975 0.4375 3.875 C-0.2740625 5.421875 -0.2740625 5.421875 -1 7 C-0.67 7.66 -0.34 8.32 0 9 C-0.99 9.99 -1.98 10.98 -3 12 C-3.66 11.67 -4.32 11.34 -5 11 C-4.46884894 6.48521602 -2.63379708 3.65333143 0 0 Z " fill="#001D50" transform="translate(338,687)"/>
<path d="M0 0 C0 3.63563409 -0.82542733 5.12645755 -3 8 C-4.32 8 -5.64 8 -7 8 C-6.3125 5.125 -6.3125 5.125 -5 2 C-2.375 0.625 -2.375 0.625 0 0 Z " fill="#002D64" transform="translate(308,623)"/>
<path d="M0 0 C0.78375 0.04125 1.5675 0.0825 2.375 0.125 C2.705 1.115 3.035 2.105 3.375 3.125 C-2.375 6.125 -2.375 6.125 -4.625 6.125 C-4.625 1.71963177 -4.59063093 0.21860147 0 0 Z " fill="#012E63" transform="translate(394.625,563.875)"/>
<path d="M0 0 C0.66 0.33 1.32 0.66 2 1 C0.59148053 2.32123942 -0.82715741 3.63169769 -2.25 4.9375 C-3.03890625 5.66839844 -3.8278125 6.39929688 -4.640625 7.15234375 C-6.89044414 8.91420543 -8.21628554 9.59776603 -11 10 C-9.60746468 6.51866169 -8.36823784 5.52113967 -5 4 C-4.67 3.34 -4.34 2.68 -4 2 C-2.0625 0.8125 -2.0625 0.8125 0 0 Z " fill="#1CB1F3" transform="translate(588,470)"/>
<path d="M0 0 C0.66 0.33 1.32 0.66 2 1 C1.360625 1.5775 0.72125 2.155 0.0625 2.75 C-1.98223868 4.98062401 -2.58205199 6.07436391 -3 9 C-3.99 9 -4.98 9 -6 9 C-6 8.67 -6 8.34 -6 8 C-6.66 7.67 -7.32 7.34 -8 7 C-5.36 4.69 -2.72 2.38 0 0 Z " fill="#001C4F" transform="translate(650,421)"/>
<path d="M0 0 C4.56048012 3.61251516 8.01665146 6.98797445 11 12 C10.01 12.495 10.01 12.495 9 13 C8.38125 12.195625 7.7625 11.39125 7.125 10.5625 C5.25835959 7.96125481 5.25835959 7.96125481 3 7 C0 2.5 0 2.5 0 0 Z " fill="#13A1F5" transform="translate(389,361)"/>
<path d="M0 0 C0.99 0.33 1.98 0.66 3 1 C2.3125 3.375 2.3125 3.375 1 6 C-1.625 7.3125 -1.625 7.3125 -4 8 C-2.25 2.25 -2.25 2.25 0 0 Z " fill="#011F51" transform="translate(319,719)"/>
<path d="M0 0 C0.82638376 2.89234315 1 4.88742431 1 8 C1.66 8 2.32 8 3 8 C2.67 8.66 2.34 9.32 2 10 C0.02 9.34 -1.96 8.68 -4 8 C-3.67 6.35 -3.34 4.7 -3 3 C-2.34 3 -1.68 3 -1 3 C-0.67 2.01 -0.34 1.02 0 0 Z " fill="#0C3465" transform="translate(526,412)"/>
<path d="M0 0 C0.66 0 1.32 0 2 0 C2.33 0.99 2.66 1.98 3 3 C0.01353231 4.99097846 -2.59687262 5.94124926 -6 7 C-6.33 6.01 -6.66 5.02 -7 4 C-6.401875 3.896875 -5.80375 3.79375 -5.1875 3.6875 C-2.70138466 2.90614947 -1.77056558 1.85104584 0 0 Z " fill="#002E63" transform="translate(297,632)"/>
<path d="M0 0 C0.66 0.33 1.32 0.66 2 1 C0.68 2.32 -0.64 3.64 -2 5 C-1.01 5.33 -0.02 5.66 1 6 C-0.98 6.99 -0.98 6.99 -3 8 C-3.99 7.01 -4.98 6.02 -6 5 C-2.25 1.125 -2.25 1.125 0 0 Z " fill="#001F54" transform="translate(377,573)"/>
<path d="M0 0 C1.32 0.66 2.64 1.32 4 2 C3.6875 3.9375 3.6875 3.9375 3 6 C0 7 0 7 -3 6 C-2 3 -2 3 0 1 C0 0.67 0 0.34 0 0 Z " fill="#012F67" transform="translate(378,572)"/>
<path d="M0 0 C2.97 0 5.94 0 9 0 C6.16671013 2.83328987 4.64553172 3.7191375 1 5 C0.67 3.35 0.34 1.7 0 0 Z " fill="#DBE7F0" transform="translate(263,514)"/>
<path d="M0 0 C5.21979128 -0.1799928 9.07262981 0.02905192 14 2 C14 2.33 14 2.66 14 3 C8.80790596 3.21192221 4.873261 2.5912689 0 1 C0 0.67 0 0.34 0 0 Z " fill="#001441" transform="translate(286,432)"/>
<path d="M0 0 C0.33 0.66 0.66 1.32 1 2 C-2.96 7.94 -2.96 7.94 -7 14 C-7.33 13.34 -7.66 12.68 -8 12 C-7.360625 11.0925 -6.72125 10.185 -6.0625 9.25 C-3.94847684 6.29601206 -3.94847684 6.29601206 -3.4375 3.75 C-3 2 -3 2 0 0 Z " fill="#0D1E4A" transform="translate(566,338)"/>
<path d="M0 0 C-2.06756277 2.7972908 -3.14440371 3.02692273 -6.6875 3.6875 C-7.780625 3.790625 -8.87375 3.89375 -10 4 C-10 2.68 -10 1.36 -10 0 C-6.30458414 -0.95024979 -3.69541586 -0.95024979 0 0 Z " fill="#012C62" transform="translate(367,585)"/>
<path d="M0 0 C-0.99 0.66 -1.98 1.32 -3 2 C-3.99 1.67 -4.98 1.34 -6 1 C-6 1.66 -6 2.32 -6 3 C-7.8125 3.625 -7.8125 3.625 -10 4 C-10.99 3.34 -11.98 2.68 -13 2 C-4.738041 -1.62870159 -4.738041 -1.62870159 0 0 Z " fill="#0D91E8" transform="translate(764,361)"/>
<path d="M0 0 C4.2742558 1.5830577 6.26531794 4.50568404 9 8 C8.67 8.66 8.34 9.32 8 10 C6.66070495 8.71451591 5.32871357 7.42141845 4 6.125 C2.88625 5.04605469 2.88625 5.04605469 1.75 3.9453125 C0 2 0 2 0 0 Z " fill="#142953" transform="translate(304,784)"/>
<path d="M0 0 C0.99 0 1.98 0 3 0 C3.75 1.6875 3.75 1.6875 4 4 C2.0625 6.75 2.0625 6.75 0 9 C-1.125 2.25 -1.125 2.25 0 0 Z " fill="#012E66" transform="translate(332,696)"/>
<path d="M0 0 C0.99 0.33 1.98 0.66 3 1 C2.01 1.66 1.02 2.32 0 3 C-1.20450304 5.55183404 -1.20450304 5.55183404 -2 8 C-2.66 7.67 -3.32 7.34 -4 7 C-4 5.68 -4 4.36 -4 3 C-2.1875 1.1875 -2.1875 1.1875 0 0 Z " fill="#002054" transform="translate(570,486)"/>
<path d="M0 0 C8.44646925 6.15034169 8.44646925 6.15034169 12 10 C8.39428893 9.40716913 6.45570562 7.97258223 3.75 5.5625 C3.04359375 4.94503906 2.3371875 4.32757813 1.609375 3.69140625 C0 2 0 2 0 0 Z " fill="#001E50" transform="translate(207,472)"/>
<path d="M0 0 C0.99 0.33 1.98 0.66 3 1 C0.03 3.64 -2.94 6.28 -6 9 C-6.66 8.67 -7.32 8.34 -8 8 C-4.375 3.125 -4.375 3.125 -1 2 C-0.67 1.34 -0.34 0.68 0 0 Z " fill="#1FB7F6" transform="translate(633,432)"/>
<path d="M0 0 C0 0.99 0 1.98 0 3 C-2.98241547 3.77321882 -5.97580475 4.41196203 -9 5 C-9 4.01 -9 3.02 -9 2 C-2.25 0 -2.25 0 0 0 Z " fill="#0A85E3" transform="translate(803,249)"/>
<path d="M0 0 C0 3.54404336 -0.60989485 4.10267905 -2.875 6.6875 C-3.40867187 7.31011719 -3.94234375 7.93273437 -4.4921875 8.57421875 C-6 10 -6 10 -8 10 C-8 9.34 -8 8.68 -8 8 C-7.34 8 -6.68 8 -6 8 C-5.7525 7.4225 -5.505 6.845 -5.25 6.25 C-3.83316683 3.6997003 -2.12372463 1.98214299 0 0 Z " fill="#002357" transform="translate(703,771)"/>
<path d="M0 0 C0.33 0 0.66 0 1 0 C0.67 5.94 0.34 11.88 0 18 C-0.33 18 -0.66 18 -1 18 C-1.87557031 11.45688671 -2.3548854 6.23352019 0 0 Z " fill="#0884E5" transform="translate(800,596)"/>
<path d="M0 0 C0.33 1.32 0.66 2.64 1 4 C-1.31 4.33 -3.62 4.66 -6 5 C-6.33 4.01 -6.66 3.02 -7 2 C-4.35261084 0.5393715 -3.10551666 0 0 0 Z " fill="#003066" transform="translate(408,559)"/>
<path d="M0 0 C0.66 0.33 1.32 0.66 2 1 C-5.11389522 6.55580866 -5.11389522 6.55580866 -10 7 C-7.01767477 3.67356033 -4.13629913 1.70847138 0 0 Z " fill="#061744" transform="translate(729,255)"/>
<path d="M0 0 C0 3.58912412 -0.66436554 4.10857029 -3 6.6875 C-3.556875 7.31011719 -4.11375 7.93273437 -4.6875 8.57421875 C-5.120625 9.04472656 -5.55375 9.51523437 -6 10 C-6 6.70776216 -5.49481868 4.91489643 -4 2 C-1.875 0.6875 -1.875 0.6875 0 0 Z " fill="#1DB0F7" transform="translate(382,623)"/>
<path d="M0 0 C2.32947183 2.11770166 3.88750845 4.03335588 5 7 C4.67 7.99 4.34 8.98 4 10 C3.13342884 8.90554162 2.28207276 7.79902219 1.4375 6.6875 C0.96183594 6.07261719 0.48617188 5.45773437 -0.00390625 4.82421875 C-0.33261719 4.22222656 -0.66132813 3.62023437 -1 3 C-0.67 2.01 -0.34 1.02 0 0 Z " fill="#0E9CF7" transform="translate(456,456)"/>
<path d="M0 0 C0 0.66 0 1.32 0 2 C1.32 2.33 2.64 2.66 4 3 C-0.455 3.495 -0.455 3.495 -5 4 C-5.66 3.01 -6.32 2.02 -7 1 C-4.50935112 0.31292445 -2.62113708 0 0 0 Z " fill="#033774" transform="translate(734,431)"/>
<path d="M0 0 C0.66 0.33 1.32 0.66 2 1 C-2.455 4.465 -2.455 4.465 -7 8 C-7 7.01 -7 6.02 -7 5 C-5.46875 3.61328125 -5.46875 3.61328125 -3.5 2.3125 C-2.8503125 1.87550781 -2.200625 1.43851562 -1.53125 0.98828125 C-1.0259375 0.66214844 -0.520625 0.33601563 0 0 Z " fill="#19ADF5" transform="translate(685,400)"/>
<path d="M0 0 C0.99 0.33 1.98 0.66 3 1 C-1.296875 5.00390625 -1.296875 5.00390625 -3 6 C-5.203125 5.65234375 -5.203125 5.65234375 -7 5 C-5.90554162 4.13342884 -4.79902219 3.28207276 -3.6875 2.4375 C-3.07261719 1.96183594 -2.45773437 1.48617188 -1.82421875 0.99609375 C-1.22222656 0.66738281 -0.62023437 0.33867187 0 0 Z " fill="#12A0F5" transform="translate(720,285)"/>
<path d="M0 0 C0.99 0.33 1.98 0.66 3 1 C2.01 2.485 2.01 2.485 1 4 C0.83286431 6.62531524 0.83286431 6.62531524 1 9 C0.34 9 -0.32 9 -1 9 C-1.625 5.625 -1.625 5.625 -2 2 C-1.34 1.34 -0.68 0.68 0 0 Z " fill="#041742" transform="translate(410,285)"/>
<path d="M0 0 C-3.4019487 2.09350689 -6.05272412 2.17942163 -10 2 C-10 1.34 -10 0.68 -10 0 C-6.42355152 -1.2380014 -3.66305234 -0.74926071 0 0 Z " fill="#13A4FA" transform="translate(570,511)"/>
<path d="M0 0 C0.33 1.32 0.66 2.64 1 4 C-1.90600261 5.25664978 -3.79604584 6 -7 6 C-4.9859524 2.9789286 -3.36720387 1.39332574 0 0 Z " fill="#032F66" transform="translate(593,470)"/>
<path d="M0 0 C2.97 0.495 2.97 0.495 6 1 C6 1.66 6 2.32 6 3 C4 4.625 4 4.625 2 6 C1.34 5.67 0.68 5.34 0 5 C0 3.35 0 1.7 0 0 Z " fill="#067CE4" transform="translate(197,423)"/>
<path d="M0 0 C0.33 0.99 0.66 1.98 1 3 C-0.21484375 5.04296875 -0.21484375 5.04296875 -1.9375 7.1875 C-2.50339844 7.90292969 -3.06929687 8.61835938 -3.65234375 9.35546875 C-4.09707031 9.89816406 -4.54179688 10.44085938 -5 11 C-5.33 10.01 -5.66 9.02 -6 8 C-4.78515625 5.95703125 -4.78515625 5.95703125 -3.0625 3.8125 C-2.49660156 3.09707031 -1.93070313 2.38164062 -1.34765625 1.64453125 C-0.90292969 1.10183594 -0.45820312 0.55914062 0 0 Z " fill="#0F97F1" transform="translate(605,395)"/>
<path d="M0 0 C0.33 0.66 0.66 1.32 1 2 C-4.75 7 -4.75 7 -7 7 C-7 6.01 -7 5.02 -7 4 C-4.69 2.68 -2.38 1.36 0 0 Z " fill="#092253" transform="translate(717,262)"/>
<path d="M0 0 C0.99 0 1.98 0 3 0 C3 2.31 3 4.62 3 7 C2.34 7 1.68 7 1 7 C0.67 7.66 0.34 8.32 0 9 C0 6.03 0 3.06 0 0 Z " fill="#077DE6" transform="translate(139,254)"/>
<path d="M0 0 C0.99 0 1.98 0 3 0 C2.34 1.32 1.68 2.64 1 4 C0.34 3.01 -0.32 2.02 -1 1 C-0.67 0.67 -0.34 0.34 0 0 Z " fill="#0987E9" transform="translate(238,563)"/>
<path d="M0 0 C0.33 1.32 0.66 2.64 1 4 C0.01 4.66 -0.98 5.32 -2 6 C-2.99 5.34 -3.98 4.68 -5 4 C-4.67 3.01 -4.34 2.02 -4 1 C-1.9375 0.3125 -1.9375 0.3125 0 0 Z " fill="#022D67" transform="translate(633,437)"/>
<path d="M0 0 C-2.97 2.475 -2.97 2.475 -6 5 C-6.66 4.67 -7.32 4.34 -8 4 C-7.25 2.0625 -7.25 2.0625 -6 0 C-3.40292416 -1.05506206 -2.5386068 -1.2693034 0 0 Z " fill="#1BAFF3" transform="translate(676,401)"/>
<path d="M0 0 C0 1.98 0 3.96 0 6 C-0.66 5.67 -1.32 5.34 -2 5 C-2 4.01 -2 3.02 -2 2 C-4.64 2 -7.28 2 -10 2 C-10 1.67 -10 1.34 -10 1 C-2.25 0 -2.25 0 0 0 Z " fill="#013C7F" transform="translate(840,342)"/>
<path d="M0 0 C0.99 0.66 1.98 1.32 3 2 C1.68 3.32 0.36 4.64 -1 6 C-1.99 5.67 -2.98 5.34 -4 5 C-2.68 3.35 -1.36 1.7 0 0 Z " fill="#133362" transform="translate(634,330)"/>
<path d="M0 0 C2.7972908 2.06756277 3.02692273 3.14440371 3.6875 6.6875 C3.790625 7.780625 3.89375 8.87375 4 10 C2 9 2 9 0.875 6.6875 C0 4 0 4 0 0 Z " fill="#00255B" transform="translate(571,638)"/>
<path d="M0 0 C0.66 0.33 1.32 0.66 2 1 C2 2.32 2 3.64 2 5 C-3.75 3.25 -3.75 3.25 -6 1 C-3.03 1.495 -3.03 1.495 0 2 C0 1.34 0 0.68 0 0 Z " fill="#012E6A" transform="translate(576,540)"/>
<path d="M0 0 C1.32 0 2.64 0 4 0 C4.33 0.99 4.66 1.98 5 3 C4.01 3.66 3.02 4.32 2 5 C1.01 4.34 0.02 3.68 -1 3 C-0.67 2.01 -0.34 1.02 0 0 Z " fill="#002C67" transform="translate(661,412)"/>
<path d="M0 0 C1.98 0.99 1.98 0.99 4 2 C4 3.65 4 5.3 4 7 C3.01 7 2.02 7 1 7 C0.67 4.69 0.34 2.38 0 0 Z " fill="#002B60" transform="translate(700,716)"/>
<path d="M0 0 C0.33 0.66 0.66 1.32 1 2 C-0.65 3.65 -2.3 5.3 -4 7 C-4 4 -4 4 -2 1.8125 C-1.34 1.214375 -0.68 0.61625 0 0 Z " fill="#0C8CE9" transform="translate(258,673)"/>
<path d="M0 0 C0 2.33333333 0 4.66666667 0 7 C-1.32 7 -2.64 7 -4 7 C-2.92598892 4.08482708 -2.22189824 2.22189824 0 0 Z " fill="#001E50" transform="translate(357,659)"/>
<path d="M0 0 C0.99 0.495 0.99 0.495 2 1 C2.4140625 3.06640625 2.4140625 3.06640625 2.625 5.5625 C2.69976562 6.38878906 2.77453125 7.21507812 2.8515625 8.06640625 C2.92503906 9.02353516 2.92503906 9.02353516 3 10 C0.70366176 6.55549263 0.45983515 4.06187717 0 0 Z " fill="#002053" transform="translate(228,623)"/>
<path d="M0 0 C0.66 0.33 1.32 0.66 2 1 C1.01 2.32 0.02 3.64 -1 5 C-0.34 5.33 0.32 5.66 1 6 C-0.65 5.67 -2.3 5.34 -4 5 C-3 2 -3 2 0 0 Z " fill="#002256" transform="translate(555,497)"/>
<path d="M0 0 C0.66 0 1.32 0 2 0 C2.66 1.65 3.32 3.3 4 5 C2.35 5.66 0.7 6.32 -1 7 C-0.34 6.01 0.32 5.02 1 4 C0.34 3.34 -0.32 2.68 -1 2 C-0.67 1.34 -0.34 0.68 0 0 Z " fill="#0A87ED" transform="translate(562,485)"/>
<path d="M0 0 C0.66 0.33 1.32 0.66 2 1 C-0.97 3.475 -0.97 3.475 -4 6 C-4.66 5.67 -5.32 5.34 -6 5 C-5.67 4.34 -5.34 3.68 -5 3 C-4.34 3.33 -3.68 3.66 -3 4 C-3 3.01 -3 2.02 -3 1 C-2.01 0.67 -1.02 0.34 0 0 Z " fill="#1AB0F3" transform="translate(622,442)"/>
<path d="M0 0 C2.97 0.495 2.97 0.495 6 1 C6 1.66 6 2.32 6 3 C3.69 3.33 1.38 3.66 -1 4 C-0.67 2.68 -0.34 1.36 0 0 Z " fill="#022354" transform="translate(522,420)"/>
</svg>
